<svg id="svg" xmlns="http://www.w3.org/2000/svg" viewBox="0 0 971.6 531.13">
	
	<defs>
		
		<style>
			
			.cls-1 {
				fill:none;
				stroke:#444444;
				stroke-linejoin:round;
				stroke-width:0.97px;
			}
				
			</style>
		
	</defs>
	
	<title>us</title>
	
	
	<path id="MA" class="cls-1" d="M956.31,153.05l-.29-.19v.29l.29-.1Zm-2.91-2.62.68-.29v-.39l-.68.68Zm12-7.57-.1-1.36-.19-.78Zm-42.42-10-.68.29-5.53,1.65-1.94.68-2.23.68-.78.29v.29l.29,5,.29,4.66.29,4.27.49.29,1.75-.49,7.86-2.33.19.49,14-5.34.1.19,1.26-.49,4.46-1.75,4.27,5.14h0l.58-.49.29-1.46-.1,2.33h1l.29,1.16.87,1.65h0l4.56-5.53,3.79,1.26.87-1.94,6.21-3.3L962.82,135l.68,3.3-3.2,2.43-3.59.29-7.18-7.67-3.2-4.85,3.2-3.4-3.3-.19-1.36-3.2-.1-.19-5.53,6L927,131.6l-4,1.26Z" transform="translate(-10.63 -21.34)"/>
	
	
	<path id="MN" class="cls-1" d="M558.55,73.85l1.94,6.89,4.08,24.85,1.94,9.9.58,8.74,2.23,5.24.49,4.46.39,1.46-.1.29-3.88,6.41,2.52,4.27,4.85,34.17.19,4.46,4.85-.29,19.12-1.07,47.76-4,4.76-.49v-.49l-1.36-7.47-5.92-3-4.66-4.85L631,158.87l-2.33-.19L625,156l1-13.39-3.4-3.11,1.16-5.44L630,128.4l-1.07-11.65,2.23-2.52h0l7.57-8,8.64-11.07,3.3-2.33,5.82-2.81,6.11-4.56-4.08.78-2.43-1.84-9.32,1.26-1.46-1.75L637,87.34l-6.7-2.81-1.84-2.23-5.34.39-3.59-1.84,1.16-1.36L616.11,78H612l-6.5,2.81-1.26-1.94L594,77.44l-3.49-8.74-.39-2.62-4.46-1.26.39,7.47-11.84.87-14.66.58-1,.1Z" transform="translate(-10.63 -21.34)"/>

<path id="MT" class="cls-1" d="M465.66,73l-32.13-2.14-23.39-2.23-23.3-2.72-14.46-1.94-23.1-3.59-11.55-1.94-25.82-5-2.72-.58L305,72.68l1.84,3.59,1.46,5.53-.87.78,1.84,5,2.52,2.14,7.18,12,.68,2,2.91-.19-3.4,15.92-1.36.39L316,125.29l9.61.68.78,4.46,5.44,13.3,1,.78,3.79,7.77,1-.78,8.06-.1,10.19,1.07,2.52-3.3,3,5.44.58.29.1-.58,1.36-9.51,33.2,4.08L423,151.4l14,1.16L462,154l1.26.1h.29l.1-1.36.29-6.7.39-8.83.1-2.23.19-3.88,1.55-30.48L467.41,77l.1-3.88-1.84-.1Z" transform="translate(-10.63 -21.34)"/>


<path id="ND" class="cls-1" d="M556.51,73.85l-29.31.58-20.48-.1-17.57-.39-20.58-.78-1.07-.1L467.4,77l-1.26,23.68-1.55,30.48L464.4,135l3.79.19,42.8,1.16,39.5-.29,16.4-.49,3.3-.19-.39-1.46-.49-4.46-2.23-5.24-.58-8.74-1.94-9.9-4.08-24.85-1.94-6.89h-2Z" transform="translate(-10.63 -21.34)"/><path id="HI" class="cls-1" d="M416.35,515l-3-2.23-2.62.68.58,5.44-3.59,4.46,3.11,7.09.87,7.28,3.59,2.33,2.23-3.59,4-2.91,4.85-1.26,5.34-4.56-5.24-4.46-.1-2.72-10-5.53Zm-17.67-7.86-1.46-1.26-1.36,1.84,2.81-.58ZM391.4,503l.39-3.59-1.84-.29L391.4,503Zm6.11-5.92-1.65.78,1.16,3.69,2.52.19.78,3.2,2.72,1.16,6-2.81-5.63-4.66L397.52,497Zm-12.42-4-.87,2.62,4.17-.1,3.88,1-2-3.2-5.14-.29Zm-12.23-7.67-2.23-2.14-4.27,3.3,2.72,5,1.94-2,5.53,1.16-.49-2.33-3.2-3Zm-43.48-4.27.58-1.36,1.65-.87-2.23,2.23Zm15.43-8.83L338,474.82l-.68,1.84,2.72,1.94,3.79,1,2.72-5.34-1.75-1.94Zm-47.08-17.86v-.1h-.19ZM246.3,441.72v.19h.1Zm-27-4.46.1.1h0Zm-1.07-1.94Zm-.87-1h-.19v.1Zm.68,0h0Zm-.1-.1h0v0Zm-30.48-25-.1-.29v.1l.1.19ZM121,387.94l-.29.29.19.1.1-.39Zm-70.37-49ZM53,339h0Zm-.49-.1ZM11.11,320.78l.29-.1v-.19l-.29.29Z" transform="translate(-10.63 -21.34)"/><path id="ID" class="cls-1" d="M309.09,52.88l-8.64-1.75-2.81-.68-1.26-.29-11.26,50.67.49,4.17-.39,4.37.19,1v.1l.1,1.84,3.3,3.59-4.76,11.94L274,141l-.29,2.43,2.62,6.21-9.22,38.24-.39,2,2.72.58L296.86,196l11,2,2.81.49,2.72.49,14,2.23,25,3.79,2.81.39.39-3.2.87-6.31,3.3-25.24,1.75-12.52.39-3.2-.58-.29-3-5.44-2.52,3.3-10.19-1.07-8.06.1-1,.78-3.79-7.77-1-.78-5.44-13.3L325.6,126l-9.61-.68,1.84-5.34,1.36-.39,3.4-15.92-2.91.19-.68-2-7.18-12-2.52-2.14-1.84-5,.87-.78-1.46-5.53L305,72.68l4.17-19.8h-.1Z" transform="translate(-10.63 -21.34)"/><path id="WA" class="cls-1" d="M192.13,77.05l.1-1.65-.19.1.1,1.55Zm20.67-8.83.58-1-.68-.1.1,1.07ZM211,66.47l.58-1.94-.58-.19ZM218,63.66l-.1-1.94-1.65,2.52,1.75-.58Zm.19-4.08.29-1.94-.19-.49-.1,2.43Zm.29-9.51-.1-1.07-.39-.1.49,1.16Zm3.11-6.41-.87-.1L219,46.28ZM219.21,41l.49-.39.1-.29-.58.68Zm-.49.29-.29-1.94L217.56,41l1.16.29Zm-.49-2.72-.87-.39.68,1,.19-.58Zm2.91,1.65V39l-.29.49ZM222,39l-.39-.29h-.1L222,39Zm-5.53-2.14-.49-.39-.19-.1Zm3.59-.39-2.62.68.68.19ZM218,36.28l-.49-.58-.1.1.58.49Zm2-1.16h-.39l.49.19-.1-.19ZM201,84.91l3.49,3.79L203.88,96l.68,1.84,5.24,2.81L224.55,102l.58,1.75,7,.1,6.6.87,10.77-1.16,5.34.87,1.46-.68L283.57,110l1.84.39-.19-1,.39-4.37-.49-4.17,11.26-50.67-1.55-.29-22.71-5.34-19.8-5-22.42-6.21-6.7-1.65,1.55,8.44-1.46,2.72-2.62-1.36,2.52,11.74-2.72,3.88-1.26,3.59v3.69l-5.73,4-2.43-1.55-2.33,1.16L213,62.39l-1.07,3.79,2.43-2.62,1.94.39-.58-4.85,1.26.19,2.62-5.82-.87-.87L215.33,57l-2.23.1,2.43-2.72,2.72-.68-1-5L214.56,48,213.2,45.7l-1.65.87-8.93-3.88-7.86-6.11-2.14,5.92L192.43,45l1.65,4.46L193,63.95l-.78,2.23,4.37.39-4.37,3.11,2.33,1.16-1.84,6.21-.87-4.85-1.65,5.63,2.23,2.72,2.43-.19,2.91,1.75,1.46,2.81H201Z" transform="translate(-10.63 -21.34)"/><path id="AZ" class="cls-1" d="M372.19,309.9l-32.71-4.08-17.57-2.52-25-4-2.52-.39v.19L290.07,318l-2.23-.1-3.4-3-4.27,3.59-.1,15.43-1.55,3.3v.39l-.19,2.43,3.4,9.12,3,4.08-5.44,3.2-2.14,4-3.49,8.54-1.75.39-.1,7.09,3,2.23-1.55,4.27-3.49.19h0l-2,3.79,7,4.37,13.2,7.38,40.77,21.65,34.55,4.27h.39l2.72-28.63.68-7.09,7.28-75.13.39-3.49-2.52-.29Z" transform="translate(-10.63 -21.34)"/><path id="CA" class="cls-1" d="M206,363.77l.39,2.14v.39l-.39-2.52Zm-14.27-8.35.68,1.46.39-.1-1.07-1.36Zm17-.29.29,2.52,1.75,1.26ZM197,341.35l-1.07-.29.87.39.19-.1Zm-10.77-2.91L183.59,340l.68.68Zm-5-1.84-.19.78.87.19-.68-1Zm8.54,1.94L194,341l.78-.68ZM156.61,253l-.1.1.1-.1Zm10.39.49-.1-.29v.39l.1-.1Zm56-73.67-3.79-1-41.54-11.45-15.43-4.66v.39l-.87,9.61-4.08,11.36-6.79,8.44-.19,4.27,3.3,5.92,1.65,7.77-2.33,6.31.39,6.31-1.16,2.62,4,8.64,2.52,3.3-.19,9.42,6,5.73L168,247l3.79,3,1.46-1.36-5.24,1-.1,5,1.07,6.21L166,258l-1.65-3.79-.49,5.24,1.36,10.39,5.44,6.7-3.59,4.66.58,5.92,3.88,6,6.79,18.64,2.14,1.16-.68,12.91,1.07,1.55,14.56,5.24,4.46,4.76,1.55,3.11,4.27,2.43,4.66.87,1.94,5.34,3.88,1.84,5.82,6.89,5.44,9-.39,8.35,3,4,39.7,3.88h0l3.49-.19,1.55-4.27-3-2.23.1-7.09,1.75-.39,3.49-8.54,2.14-4,5.44-3.2-3-4.08-3.4-9.12.19-2.43v-.1l-2.52-3.4-7.77-10.39-15-21.16-21-30.09L220.38,256l-11.45-16.5,13.2-56,.87-3.69Z" transform="translate(-10.63 -21.34)"/><path id="CO" class="cls-1" d="M489.63,255.55l.39-19-4.66-.19-23.68-.87-2.33-.1-1.94-.1-28.83-1.84-19.22-1.55-24-2.33-2.33-.29-.29,2.52-5.24,50.57L375.68,300l-.78,7.67-.19,2.52,3,.29,48.92,4.27,21.55,1.36,21.45,1,3.11.1,1.94.1,4.08.1,1.94.1,6.11.19h1.55v-1.94l1.07-51.35.1-5.73v-1.84l.1-1.26Z" transform="translate(-10.63 -21.34)"/><path id="NV" class="cls-1" d="M294.83,295.83,304.92,233l5.14-31.45.58-3.11-2.81-.49-11-2-27.47-5.44-2.72-.58-2.72-.58-13.69-3-24.56-5.82-2.72-.68-.87,3.69-13.2,56L220.38,256l11.84,16.4,21,30.09,15,21.16L276,334.07l2.52,3.4v-.29l1.55-3.3.1-15.43,4.27-3.59,3.4,3,2.23.1,4.27-18.83v-.19l.49-3.11Z" transform="translate(-10.63 -21.34)"/><path id="NM" class="cls-1" d="M472.45,324.76l.1-2.52.1-2.52.1-2.52-3.11-.1-21.45-1-21.55-1.36-48.92-4.27-3-.29-.39,3.49L367,388.82l-.68,7.09-2.72,28.63.39.1,13.39,1.26,1.26-6.79,2.43-1.94,27.18,2.43h.19l-2.43-4.76,12.33.87,30.77,1.75,19.22.87,3.3-91,.68.1.1-2.62Z" transform="translate(-10.63 -21.34)"/><path id="OR" class="cls-1" d="M162.24,162.76l15.43,4.66,41.54,11.45,3.79,1,2.72.68,24.56,5.82,13.69,3,2.72.58.39-2,9.22-38.24-2.62-6.21L274,141l10.09-13.2,4.76-11.94-3.3-3.59-.1-1.84v-.1l-1.84-.39-27.27-6.21-1.46.68-5.34-.87-10.77,1.16-6.6-.87-7-.1-.58-1.75-14.75-1.36-5.24-2.81L203.88,96l.58-7.28L201,84.91l-.29.1-.68.49L195.14,83l-2.91.87-1.94-1-2,8.35-1.36,2.33-6,14.66-1.75,8.06-1.07.1-5.63,13.39-3.79,5.73-1.36,1-3.49,6.79-.68,7.18L161,156.84l1.26,5.82v.1Zm35.53-79.69-.29-.87-.1.68.39.19Z" transform="translate(-10.63 -21.34)"/><path id="UT" class="cls-1" d="M352.39,205l-25-3.79-14-2.23-2.72-.49-.58,3.11L304.92,233l-10.09,62.8-.49,3.11,2.52.39,25,4,17.57,2.52,32.71,4.08,2.52.29.19-2.52.78-7.67,1.84-17.67,5.24-50.57.29-2.52-1.94-.19-24.75-3-3.79-.49L355,206.63l.19-1.26-2.81-.39Z" transform="translate(-10.63 -21.34)"/><path id="WY" class="cls-1" d="M461.39,192.17l.78-15.14,1-20.38.1-2.52L462,154,437,152.57l-14-1.16-26.5-2.52-33.2-4.08L362,154.31l-.1.58-.39,3.2-1.75,12.52-3.3,25.24-.87,6.31-.39,3.2-.19,1.26-2.43,18.93,3.79.49,24.75,3,1.94.19,2.33.29,24,2.33,19.22,1.55,28.83,1.84,1.94.1.1-2.52.49-10.19.87-17.76.39-7.57.1-2.52.1-2.62Z" transform="translate(-10.63 -21.34)"/><path id="AR" class="cls-1" d="M690.46,328.06,680,329.61l4.27-6.79L682.4,319l-37,3.59-31.25,2.52-4.56.29.58,2.72L614,347.76l.1,4.37,1.07,26.4.1,4.37.29.1,1.46,1.55,5.82-.19.58,8.54.19,2.43,3-.29,9.22-.68L672.4,391h.19l-.1-2.14,1-.68-1.75-3.3,3.69-15.53L674,367.56l5.53-6.11-.39-5.24,4.08-6.79v-.1l-.19-.19,3.49-3.2-1-3.88,2.72-4.27-.58-4,2.91-5.63v-.1h-.1Z" transform="translate(-10.63 -21.34)"/><path id="IA" class="cls-1" d="M661.53,197.7l-5.34-2.81-2.91-4-1-5.73.78-2.62-2.81-3.4h0l-4.76.49-47.76,4-19.12,1.07-4.85.29-2,.1,1.65,10.77L572,201l2.14,3.2v.68l.68.1L578,214.1l3,4.76.19,5.44,3.3,4.56-.58,1.94,3,12.23v.29h0l19.9-.58L628,240.89l20.87-2.62,4.76,4.17.19.19.87-.39-.68-3.79,3.59-2.23,1.46-9.9-1.46-.68.87-5,4.37-.87,4.85-3.49,2.14-6.11L670,207l-3.88-3.69L664.93,201l-3.69-2.33.19-.49.1-.49Z" transform="translate(-10.63 -21.34)"/><path id="KS" class="cls-1" d="M608.92,312.72l-2.43-41.06-4.37-2.52-.39-1.94-3.49-3.11,3.4-4.17-1.36-2.43-2.52.1-2.33-1.65-1-.78-3.3.19-35.82,1.36-16.4.39H506.33l-13.1-.19-3.69-.1v1.84l-.1,5.73-1.07,51.35v1.94l4.17.1,22.52.29,52.71-.78,37.56-1.75,3.69-.29-.1-2.52Z" transform="translate(-10.63 -21.34)"/><path id="MO" class="cls-1" d="M653.67,242.45l-4.76-4.17L628,240.89l-21.26,1.84-19.9.58h0l-.1.58,2.43,4.66,2.23,1.55,2.62,4.66.39.39,1,.78,2.33,1.65,2.52-.1,1.36,2.43-3.4,4.17,3.49,3.11.39,1.94,4.37,2.52,2.43,41.06.1,2.52.19,2.52.1,2.52.19,2.62.1,2.52,4.56-.29,31.25-2.52,37-3.59,1.84,3.79L680,329.61l10.48-1.55h.1v-.78l.19-4.46,1.94-2.43-.58-2.72-.1-.1-.1-.1.39-1.26.58.19.29.78-.1.29v.87l.39.1.78-1v-.1l.1-.29,2.52-1.55.39-.19.87-8-.19-.39-.29-.1-6.89-5.63,1.07-2-1.94-5.53L686.38,291l-6.6-2.91-4.17-3.4.49-7,1.26-6.5-7,.39-2.14-2.23-1-4.46-11.07-9.32-3.11-8.64.78-4.27h0l-.19-.19Z" transform="translate(-10.63 -21.34)"/><path id="NE" class="cls-1" d="M572.33,204.69l-3-3-10.58-3.11-3.4-.1-5.14,1.46L544.08,196l-19.12.19L497.11,196l-32.9-1.07-2.91-.1-.1,2.52-.39,7.57-.87,17.76-.49,10.19-.1,2.52,2.33.1,23.68.87,4.66.19-.39,19-.1,1.26,3.69.1,13.1.19h32.61l16.4-.39,35.82-1.36,3.3-.19-.39-.39-2.62-4.66-2.23-1.55-2.43-4.66.1-.58V243l-3-12.23.58-1.94-3.3-4.56-.19-5.44-3-4.76L574.85,205l-.68-.1-1.84-.19Z" transform="translate(-10.63 -21.34)"/><path id="OK" class="cls-1" d="M609.51,322.91l-.19-2.62-.1-2.52-.19-2.52-3.69.29-37.56,1.75-52.71.78-22.52-.29-4.17-.1h-1.55l-6.11-.19-1.94-.1-4.08-.1-1.94-.1-.1,2.52-.1,2.52-.1,2.52-.1,2.62h.58l23.49.58,24.85.29.29,33.2,1.75,5.82L527.2,371l4.17.19.87-1.75,5.73,5.24,7.47.78L546.8,377l2.72-1.26,6.79,3.2v1.84l2.52-.1,2.62-2.23,4.85,3.11,4.56,1.65,3.11-4.27,9.9,4.66,3.69-3,3-1.16L593,380l9.12-2.62,4.85,2,4.37,2.81,3.79.68h.1l-.1-4.37-1.07-26.4-.1-4.37-3.79-19.61-.58-2.72-.1-2.52Z" transform="translate(-10.63 -21.34)"/><path id="SD" class="cls-1" d="M566.89,135.58l-16.4.49-39.5.29-42.8-1.16L464.4,135l-.1,2.23-.39,8.83-.29,6.7-.1,1.36h-.29l-.1,2.52-1,20.38-.78,15.14-.1,2.62,2.91.1,32.9,1.07,27.86.29,19.12-.19,6.11,3.88,5.14-1.46,3.4.1,10.58,3.11,3,3,1.84.19v-.68L572,201l1.36-5.14-1.65-10.77,2-.1-.19-4.46-4.85-34.17-2.52-4.27,3.88-6.41.1-.29-3.3.19Z" transform="translate(-10.63 -21.34)"/><path id="LA" class="cls-1" d="M689,469.28l-1.26.29-.58.58,1.84-.87Zm4.08,0-.68-.29-.19.29Zm2.33-.78h-.68l-.39.49Zm-1.16-.68-.19-.29-.1.29h.29Zm7.77-5.14-.29.19h.49l-.19-.19ZM715.6,457l.58-.78-.68.87.1-.1Zm1.94-2.52-.19.1v.1l.19-.19ZM667.65,463l1.46-1.84-4-1.07-1.75,1.46,4.27,1.46Zm40.28-8.44-.39-.39-.1.19.49.19Zm1.07-1.75-1-.29.29,1Zm8-1.65v0Zm1.94-1.26-.1-.1.1.19v-.1Zm-.78-.19-.19-.1-.1.29.29-.19Zm-6.79-.29.87-.29v-.29l-.87.58Zm.49-.49.49-.49-.1-.1-.39.58Zm-3.4-3.59-.19.19h.1l.1-.19ZM672.6,391h-.19l-36.59,3.4-9.22.68-3,.29.1,2.33,1.94,18.73,3.2,4.46.1,2.62L632,428.9l2.52,8-.87,4.46L633,452.39,631.54,456h.19l.29,2.52-1.65,2.33,12-1.36,9.42,2.62,6.7.87,3.4-2.43-1.84-2.43,6.21-1.94-.19,2.14,3.2-.78,2.62,4.08,2.23-.78,5.82,4-3.59,1.26,8.25,2.43h3.11l1.84-2.23,4-2.14,2.81,4.08,1.94-3.69-.58-5.82,5.24,2,.58,1.75,6.21.78,3.11,2.52-.39,2,4.37-4.08-1.65-2.14-7.28-1.84-2.72-1.55-.1-2.91,3,.39,2.33-4.76-3-4.17-1.65,4-3.79-.68,2.62-4.27-1.75-.49-4.27,3-6.11.39-1.75-1.36,2.81-5,3.3-.1,5.63,1.84,4.08.39h0l-2.23-2.81-4.27-8.35,1.16-4.66-33.49,3.69,1.26-1.26-1.36-3.49,2-3,1.16-7.57,7.38-12.62-3.59-4.37.19-3.2-2.23-5.24V391Z" transform="translate(-10.63 -21.34)"/><path id="TX" class="cls-1" d="M574,536.94l-4.66-17.57v3.3Zm-1.07-30.87-3.3,6.21-.39,2,3.69-8.25Zm2.62-4.56,3.11-4.08-2.23,1.36Zm11-9.9-7.28,3.79,2-.39Zm1-1.36,2-1.65-.78.19ZM472.36,327.38l-.68-.1-3.3,91-19.22-.87-30.77-1.75-12.33-.87,2.43,4.76.1.1,10.48,10.48,6,7.09,8,5.92,5.63,10.29,2.14,10.77,4.56,3,3.59,4,5.14,1.84,7.47,4.76,3.4,1.26,4.66-4.66,1.46-5,2.43-4.76,7.57-3,2.91,1.46,8.44.68,7.67,4.76,5.24,1-1.46,2.72,3,1.94,2.81,3.4.58,3.59,1.84,2.43,4.27,10.29,4.27,3.59L524,503l4.17,4.27,1.84.58,1.55,11.07,4.56,2.52.19,3.49,1.16-.29,8,9.71,4,.87,5,3h7.77l5.63,3.11,6.7-1.46-3-2.81-2.72-8.15-1.07-7.09-1.55-2.33.68-4.76-2-.19L562.14,510l3.11,3.3,3.59-1.26,1.94-5.14-3.88-5.24,5.82.68,2.72-4.17-.39-1.46,2.43-3.2-.58,2.81,2.72-2.14-1.07-3.79,3.49,1.84,4.46-2.52-4.37-4.56,2.72,1.07,5,.29,6.6-1.46,7.38-5,4.46-3.69.68-2.72,2.72-2.81-1.46-4.66.29-2.91,4.85-2.14-.39,5.14h2.91l-3.2,2.72,12.91-6.79,2.14-.1,1.36-6.21h.39l1.46-3.59.68-11.07.87-4.46-2.52-8-3.11-5.44-.1-2.62-3.2-4.46-1.94-18.73-.1-2.33-.19-2.43-.58-8.54-5.82.19L615.52,383l-.29-.1h-.1l-3.79-.68L607,379.4l-4.85-2L593,380l-2.43-.58-3,1.16-3.69,3-9.9-4.66-3.11,4.27-4.56-1.65-4.85-3.11-2.62,2.23-2.52.1v-1.84l-6.79-3.2L546.8,377l-1.36-1.55-7.47-.78-5.73-5.24-.87,1.75L527.2,371l-3.88-3.69-1.75-5.82-.29-33.2L496.43,328l-23.49-.58h-.58Z" transform="translate(-10.63 -21.34)"/><path id="CT" class="cls-1" d="M937,143.34l-14,5.34-.19-.49L915,150.53l-1.75.49.19,1,3.69,14.27,1.16,1.46-2.52,3.11,1.75,1.65h0l5.63-5.44,3-4.17.58,1.16,14.17-6.31.29-.29-.1-2.33-.58-2-3-8.44-.39-1.07-.1-.19Z" transform="translate(-10.63 -21.34)"/><path id="NH" class="cls-1" d="M923.89,76l-1.26,1.55-1.46-.29-.78,6.41v.1l2.33,8.74-.19,1.75-4.17,5.53,1.07,5v6.31l-.78,5.82L923,132.86h0l4-1.26,12.23-4.08,5.53-6h0V120l.29-2.52-.68.29-.1-.58-6.11-7.47L938,109,923.89,76Z" transform="translate(-10.63 -21.34)"/><path id="RI" class="cls-1" d="M946.51,152.08l-.1-2-.29.78.39,1.26Zm1.94-1.55-1.26-2.43-.1,2.52,1.36-.1Zm-.58-3,.68,1.75.87,1.55.58-1.16-.87-1.65-.29-1.16h-1Zm-10.77-4,.39,1.07,3,8.44.58,2,.1,2.33.19-.29,4.66-3.69-.87-6.6,1.94-.39h0l-4.27-5.14-4.46,1.75-1.26.49Z" transform="translate(-10.63 -21.34)"/><path id="VT" class="cls-1" d="M923,132.86l-4.37-15.92.78-5.82v-6.31l-1.07-5,4.17-5.53.19-1.75-2.33-8.74-1.26.49-5.34,1.94-5.24,2-12,4.37-.68.19L900.21,103l1.46,9.61,5.14,8.06,4.85,15.92.19-.1.78-.29,2.23-.68,1.94-.68,5.53-1.65.68-.29h0Z" transform="translate(-10.63 -21.34)"/><path id="AL" class="cls-1" d="M718.31,344.85l.39.78,1.36.87.58,39.8.19,21.84,5,29.9.39-.1,4.37.87,1.16-8.64,1.94,4.85,3.3,3,6.31-3.69-.68-.58.19.1-4.37-10,41.93-6.79,2.81-.49v-.1l-2.62-5-.19-7.09-2.14-3.88,1.07-7.57L781,391l-7.18-12.81-13-39.6-.1-.19-2.91.49-15.53,2.52-7.77,1-16.31,2.23.1.19Z" transform="translate(-10.63 -21.34)"/><path id="FL" class="cls-1" d="M854.69,535.29h-.19l.1.1.1-.1Zm-.87-.1v.1h.1Zm.19-.1v0Zm-13.2,1.46h0v0Zm-.19.1v0Zm.1-.1Zm-1,.1h-.1v.1Zm27.57-6.11h-.1l.1.19Zm2.62-.68v-.19l-.19.29.19-.1Zm-1-.19-.39-.39-.1.1.49.29Zm-.29.78L867.5,529l.68,1.26.49.19Zm9.22-5.73v.39l.19-.19Zm1.36-1,.29-.49-.39.39.1.1Zm.29-1h-.1v.1Zm-1.75-.29-.1-.1.1.1Zm.87-1.46-.1-.1v.19l.1-.1Zm-2.62-.1-.1-.1.1.1Zm3.3-2.23-.19.1.29.1-.1-.19Zm.39,0-.19-.19.1.29.1-.1Zm-.68-.19-.1-.1v.19l.1-.1Zm3.59-.68v-.1l-.19.39.19-.29Zm-4.08.39h-.19l.19.1Zm2-1.16h-.29l-.1.1.39-.1Zm.78-.49Zm-8.15.39v-.19l-.1.19Zm.87-.29h-.29l.29.58Zm-2.33.1v-.58l-.49.1Zm-1.36-1,.49.49v-.19l-.49-.29Zm14.27.58-1.75.78.58.1Zm-13.59-.87h-.58v.19Zm15.34-4.85.1-.49.1-1.26-.19,1.75Zm.1-5.44-.39-1-.19.39Zm-22.42,2.43-.19.29.49.1-.29-.39Zm-1.84-.87-.87.29.68.1.19-.39Zm-1.94.19v-.29l-.1.1.1.19Zm-2-.1-.58.39.78.39-.19-.78Zm2.72.1-.1-.29-.49-.1.58.39Zm-12.72-9.51-.58.29,1.16.39-.58-.68ZM846,494.32l-.78-1.16.29.87.49.29Zm3,1.94-1.36-3.11-1-.29Zm-3.88-3.88-.29-.78-.19-.49.49,1.26ZM837,481.61l-1.75-1.26.68.68Zm43.68-6.5-7.09-11.84h-.39l7.47,11.84Zm-49-18.93-.29-.1.29.19v-.1Zm-.58-.68-.1.1.1.1v-.19Zm-.68-1v-.1l-.1.1Zm.39-.39.29.19v-.19Zm.58-.39-.39.1h.1l.29-.1Zm-.68-.1-.29-.29.1.1.19.19Zm-.68-1.07h-.19l.29.1-.1-.1Zm.68-1.16h-.39l-.1.1.49-.1Zm.39.19-.49-.49.19.1.29.39Zm-3.69-4.17-.19-.1v.1Zm-4.17,0-.29-.39.1.49.19-.1Zm-35.33-3.2,2.91-2.23-3.2,2.14.29.1Zm5.82-4.66.29-.29-1.16.49.87-.19Zm-36.88-6.5-10.58,3.4,5.82-1.65Zm26.3-16.5-2.81.49-41.93,6.79,4.37,10,.29.1-1.07,4,3.11-1.36,3.4-3,5.82-.19,6.7-2.43,4.56.68-1.07,1.65,8.35,2.81,7.18,3.49,1.65,3.88L787,442.3,799.65,432l4.66.19,19,14.37,3.88-.78,4.08,5.44.78,8.64-1.26,5.44.58,2.72,3.4,6.79-1.55-5.34,4.37-.1.39,3.88-2.33,6,8.06,11.07,3,.1L844.2,487l3.11.39,1.84-1.16-.78,6.21,4.17,3.3,2.81,7.57,3.79,2.33,4.85,1.26,6.7,8.54,3.49,1.84-4.66.29,2.14,2.43,7.67-2.52,3.79-2.14,3.49-12.23-1.75-19-.39-1.94-9.32-15.53-8-11.26-4.46-9.22,3.79,3.2.78-.58,1.65,8.06,4.27,6.11-4.17-8.15.19-3.88L856.73,435.7l-3-4.76-4-8.06L847,416.09l-2.14-2.43-.49-3.11-.1-.1-6.7-.39-2.62,2-1.46,7.47-1.36-3.49-45.81,5.73-3.3-5.14.1-.1Z" transform="translate(-10.63 -21.34)"/><path id="GA" class="cls-1" d="M845.85,396.1l-.1-2.91-.68,2.52.78.39Zm1.07-4.46-.39-2.23-.29,1.36ZM801.5,330.48l-1.26.29-3.69.78L783,334.36l-1.26.29-1.36.19-7.57,1.46-2,.39-8.25,1.55-1.75.19.1.19,13,39.6L781,391,779.27,393l-1.07,7.57,2.14,3.88.19,7.09,2.62,5v.1l-.1.1,3.3,5.14,45.81-5.73,1.36,3.49,1.46-7.47,2.62-2,6.7.39h0L843.72,400l1.26-2.23-.68-4.17,1.36-4,2-2.23L846.24,386l3.4-4.17h-.1l-5.82-5.44-8-11.36-4.37-2-18.73-15.72-4.56-5.82-8.83-3.69-.49-1.94,2.72-5.34h0Z" transform="translate(-10.63 -21.34)"/><path id="MS" class="cls-1" d="M716.76,442.78l-.49.1v.1l.49-.19Zm9-1.16h-1.36l1.26.1.1-.1Zm-11.26,1-.39.39.1.1.29-.49Zm9.12-.78H720l3.49.1Zm-40.48-92.5v.1l-4.08,6.79.39,5.24L674,367.56l1.46,1.75-3.69,15.53,1.75,3.3-1,.68.1,2.14v.68l2.23,5.24-.19,3.2,3.59,4.37-7.38,12.62-1.16,7.57-2,3,1.36,3.49-1.26,1.26,33.49-3.69-1.16,4.66,4.27,8.35,2.23,2.81v-.1l3.59-4.08,7.57-1.65,7,.78,1.07-1.36V438l-5-29.9-.19-21.84-.58-39.8-1.36-.87-.39-.78h-.19l-4.85.68-8.54,1.16-19.41,2.43-2.14.19Z" transform="translate(-10.63 -21.34)"/><path id="SC" class="cls-1" d="M801.5,330.48h0l-2.72,5.34.49,1.94,8.83,3.69,4.56,5.82L831.39,363l4.37,2,8,11.36,5.82,5.44h0l1-4.46L849,373.09l4.17,3.11,2.33-1.84-4-3.3,4.85-.29,7.57-6.41-.87-1.65,4.66-3.59-.49-1.75,3.4-2.14.19-5,5.34-9.9,3.59-4.56.39-.19-21.65-13.69-8.06,1.55-11-.39L834,320.29l-32.22,10.19h-.29Z" transform="translate(-10.63 -21.34)"/><path id="IL" class="cls-1" d="M661.43,198.19l-.19.49,3.69,2.33,1.16,2.33L670,207l-.1,3.11-2.14,6.11-4.85,3.49-4.37.87-.87,5,1.46.68-1.46,9.9-3.59,2.23.68,3.79-.87.39h0l-.78,4.27,3.11,8.64,11.07,9.32,1,4.46,2.14,2.23,7-.39-1.26,6.5-.49,7,4.17,3.4,6.6,2.91,3.49,2.72,1.94,5.53-1.07,2,6.89,5.63.29.1-.58-.58,1.94-4.56,7.47,2,1.84-2.14-1.46-4.27,6.11-3.59-1.65-2.33,1.46-3.3V288l-.39-.1.1-8.64,2.14-1.55L718.6,269l-.78-3.79-2.43-4.56,1.36-5.14L710,207.7l-1-1.07-2.52-5.73-2-2.14-.87-5.63v-.19l-13.1,1.84-7.86,1-21.16,2.43h0Z" transform="translate(-10.63 -21.34)"/><path id="IN" class="cls-1" d="M750.34,200.22l-14.85,2.62-3.4.68-12,1.94-2.52,2-3.79,1.75-1.46-.1-1.75-.87-.58-.58,6.79,47.85-1.36,5.14,2.43,4.56.78,3.79-3.69,8.64-2.14,1.55-.1,8.64.39.1.39-.1,1.46-2.72h3.59l4.37-1.46,5.44,2,.58-2.23,3.11-2.33,4.66.68,2.52-5,6.89.58-.1-2.81,6.11-8.06-1-3.69,4.27-.1,5.24-4.17-1.26-4.76.19-.19-.19-1.65-5.82-34.36L750.93,203l-.29-1.55-.29-1.26Z" transform="translate(-10.63 -21.34)"/><path id="KY" class="cls-1" d="M693.17,317.18l-.29-.78-.58-.19-.39,1.26.1.1,1.07-.1.1-.29Zm66.39-63.48-.19.19,1.26,4.76-5.24,4.17-4.27.1,1,3.69L746,274.67l.1,2.81-6.89-.58-2.52,5-4.66-.68-3.11,2.33-.58,2.23-5.44-2-4.37,1.46h-3.59l-1.46,2.72-.39.1v.29l-1.46,3.3,1.65,2.33-6.11,3.59,1.46,4.27-1.84,2.14-7.47-2-1.94,4.56.58.58.19.39-.87,8-.39.19-2.52,1.55-.1.29,2.81-.39,19.61-2.62-1-3.88,3.3-.1,39.5-5.24,27.76-4.66.39-.29.68-.78,7.28-3.88,5.63-7.38.78-2.52,3.69-2.91,4.66-5.92.68-1-.29-.1h-2.43L804.21,274l-5.53-6.7-1.94-6.79v-.19l-.19-.19-4.08-2.33-1.84-3.11-3.69,3.59-2.33.58-2.91-1.16-2.52,1.94-5.24-2.33-1.36.58-5-4.27-2.52-1.26-4.76.58-.78.78Z" transform="translate(-10.63 -21.34)"/><path id="NC" class="cls-1" d="M890.21,332.23l-1.07,1.07.19.19.87-1.26Zm.78-5.63-.49.78.19.78.29-1.55Zm5.82-9-1.46,1-.78,1.16,2.23-2.14Zm12.52-6.11-.58-.39-1.26-.1,1.84.49Zm-2.62-.58h-.87l-1.46.78Zm3,1.07,2.81-7-1.94,2.91-.87,4.08Zm4.17-9.22,1.26-1.84h-.68Zm8.15-7.57-2.14-10.77,1.84,5.63.29,5.14Zm-11.84-24.56-.19.1-.29.1h.1l5.34,9,4.17,4.17-9.12-13.39h0Zm-1.75.58-.78.19h0l.19.1h1.65l-.19-.58h0l-.29.1h-.29v.19l-.19.1-.1-.1h0Zm-89.78,22.13-.49,1.46.1,4.17-1.07-.1L814.7,304l-2.81.29-5.24,5.14-2.33-.87-3,4.46-8,7.18-3.88,1-4.08,3.79-.19,2.52-3.59,1.94.1,4.27v1l1.26-.29,13.59-2.81,3.69-.78,1.26-.29h.29L834,320.29l5.44,2.81,11,.39,8.06-1.55,21.65,13.69.39-.29,10-4.08.1-5.34,3.59-6.5,3.88-3.69,8.06-5.34,1.07-1.94,2.14,1,1-6.41-1.16,2.23-4.08,1.36-3.88.1,4.76-3.49-1.46-1.55,1.65-3.49L897,296.7l-.39-.49,7.77-1.46,2.52,1.26,3.2-.29,2.62-1.94,1.94-3.79,1.75-.49-.29-5.34L913.9,282l-2.23,2,.49,5.14-1.65-6.31-1.26-.29-9.61,4,4.27-4.17.19-1.65,4.46-1.07,1.26-3.3,3,1.75-3.2-4.76-2.23-1.94h0l-38.83,11.07-24.75,6.31-25,4.66-.1-.19Z" transform="translate(-10.63 -21.34)"/><path id="OH" class="cls-1" d="M818.19,206.63l-2.43-10.48-.49-2.14-2.72-11.94-3.49,2.23L801.59,190,796.74,196l-3.79.58-7,4-3.88-2.33-11.74-1.36h0l-6.21,1.55L758,199.84l-6.41,1.36-1,.29.29,1.55,2.62,14.66,5.82,34.36.19,1.65.78-.78,4.76-.58,2.52,1.26,5,4.27,1.36-.58,5.24,2.33,2.52-1.94,2.91,1.16,2.33-.58,3.69-3.59,1.84,3.11,4.08,2.33.19.19h0l4.17-2,1.46-3.2-1.16-3.3,3.3-5,2.43-.39-.29-4.27,4-5.44.68.78,3.59-2.72L818,230l.49-21.26.19-.1-.49-2Z" transform="translate(-10.63 -21.34)"/><path id="TN" class="cls-1" d="M786.26,300.49l-27.76,4.66L719,310.39l-3.3.1,1,3.88L697.06,317l-2.81.39v.1l-.78,1-.39-.1v-.87l-1.07.1.1.1.58,2.72-1.94,2.43-.19,4.46v.87l-2.91,5.63.58,4L685.51,342l1,3.88-3.49,3.2.19.19,2.14-.19,19.41-2.43,8.54-1.16,4.85-.68h.19l-.1-.19,16.31-2.23,7.77-1,15.53-2.52,2.91-.49,1.75-.19,8.25-1.55,2-.39,7.57-1.46,1.36-.19v-1l-.1-4.27,3.59-1.94.19-2.52,4.08-3.79,3.88-1,8-7.18,3-4.46,2.33.87,5.24-5.14,2.81-.29,2.52-5.14,1.07.1-.1-4.17.49-1.46-1.55.29-5.53,1.55-6.6,1.36-16.6,3.4-1.75.29-.39.29Z" transform="translate(-10.63 -21.34)"/><path id="VA" class="cls-1" d="M908.75,271H909l.29-.1h0l-.19-.49-.39.58h0Zm-3.3-10.87v.49l.49-.29Zm1.75-3.4-.1-.78h0Zm-.58,1.16-.19,1.26-.29.49.49-1.75Zm.87-2.52.1-.58-.19.58h.1Zm.58-2.62.29-.68-.49,1.75Zm.1-1.46.39-2.14-.49.49.1,1.65Zm1.75-9.61.19-.87-.1.19-.1.68Zm-.39-2.23-1.26.49-1.94.87-.68.87.29.1-2.33,14.46.87,2.33,1.36-6,2.52-7.86,1.16-5.14v-.1Zm1.94-.78-.29.1-.1.39-.49,3,.39-1.07.49-2.43ZM810,275.84l-.68,1-4.66,5.92L801,285.64l-.78,2.52-5.63,7.38-7.28,3.88-.68.78,1.75-.29,16.6-3.4,6.6-1.36,5.53-1.55,1.55-.29.1.19,25-4.66,24.75-6.31,38.83-11.07h0l-.29-.49-.1-.29.68.68h0l.78-.19-.1-.1-.68-3.3.49.1,1.55,2.91h0l.29-.1.19-.1-.39-.78-4-6.11-5,.87-2.23,1.84-2.14-1.94-7.28-2.43-5-.19L894,261l5.44,3.69,1.55-2.43-4.37-5.53,3.11.19-1.65-4.46-3.88.19L885,245.16h-1.16l13,6.41-.87-4.46.87-1.46-6.6-2.52-5.73-.39-2.81-2.52-2.33,1.46-.87-6.7,1,.19-.19-5.44-.19-.19-.19.1-.19-.1-.49-.39-.29-.29-3.11-1.36-3.2-2.33L867.11,224l-.29-.1v.1l-.58,4.08-9-3.88.19,5.63-5,9.42-3,3.3-1.94,5.73-5.92-2-2.91,13.2-2.33,4.46-.39,5.82-1.75,2.81-6.5,1.94-5.34,4.17-2.52.39-2.43,2.14-6.11-2.23-1.07-3-.19-.1Z" transform="translate(-10.63 -21.34)"/><path id="WI" class="cls-1" d="M705.79,134.8l-2.43,3-1.46,4.37.68,2.43ZM650.08,112l1.46-2-1.07,1Zm2.23-3.2-.49-.58-1.07.68,1.55-.1Zm-21.16,5.44-2.23,2.52L630,128.4,623.77,134l-1.16,5.44,3.4,3.11L625,156l3.59,2.72,2.33.19,7.38,4.46,4.66,4.85,5.92,3,1.36,7.47v.49h0l2.81,3.4-.78,2.62,1,5.73,2.91,4,5.34,2.81-.1.49h0l21.16-2.43,7.86-1,13.1-1.84-.39-1.46v-4.56l-2.62-4.85-.68-6.11,1.26-6.79-.68-5.24,2.33-6.5-.87-1.07.19-6,1.26-4.56-1.46-1.55-2.81,1-1.55,4.08-3.69,2.14,1.16-5.14,3.3-4.37.19-1.94.1-.1L694,135.19v-6.6l-5.24-4.27-7.18-.49-7.38-1.94L658.23,117l-3.11-1.75-.29.29-5-.68-1.65,1,.68-7.09-8,4.08-9.71,1.55-.1-.19Zm19-5.14-.19-.68-.68.29Zm-3.49-.68.29-.58-.19-.19-.1.78Zm7.09-1.65-.29-1.36-.29,1.65Z" transform="translate(-10.63 -21.34)"/><path id="WV" class="cls-1" d="M836.73,223.71l-13.78,3.4-4.27-18.44h0l-.19.1L818,230l-3.11,4.66-3.59,2.72-.68-.78-4,5.44.29,4.27-2.43.39-3.3,5,1.16,3.3-1.46,3.2-4.17,2h0v.19l1.94,6.79,5.53,6.7,3.11,1.75h2.43l.29.1.19.1,1.07,3,6.11,2.23,2.43-2.14,2.52-.39,5.34-4.17,6.5-1.94,1.75-2.81.39-5.82,2.33-4.46,2.91-13.2,5.92,2,1.94-5.73,3-3.3,5-9.42-.19-5.63,9,3.88.58-4.08v-.1h0L864,219.05l-5.82-.68-3.4,2.62v1.94l-2.91.68-4.27,3-2.23.49-4.46,6.31-2.23-10.19-1.94.49Z" transform="translate(-10.63 -21.34)"/><path id="DE" class="cls-1" d="M893.8,207.7l.39,1.46,8.06,23,9.22-2.72-.1-.19h.19l.29.1h0l.19-.1-.19-.39-2.33-6.21-11.36-10.77.49-7.47h-2.33l-1.75,1.36-.78,1.94h0Z" transform="translate(-10.63 -21.34)"/><path id="DC" class="cls-1" d="M878.18,229.15l.49.39.19.1.19-.1.19.1.68.39.19.29V231l.19.39,1.26-2.33-1.36-.78-1.65.1-.39.78Z" transform="translate(-10.63 -21.34)"/><path id="MD" class="cls-1" d="M911.57,238.27l.68-5.24-.58,3.88-.39,1.65-.1.19.29-.1.1-.39Zm.49-9-.19.1.19.58v-.68h0Zm-73.38-6,2.23,10.19,4.46-6.31,2.23-.49,4.27-3,2.91-.68V221l3.4-2.62,5.82.68,2.81,4.85h0l.29.1,4.46,1.16,3.2,2.33,3.11,1.36.29.29.39-.78,1.65-.1,1.36.78-1.26,2.33v.1l-1.84,5.63,6,3.88,6,.29,4,1.84-1.65-4.66-5.14-1.75-1.26-4,3.2,4.27,2.62.39-2.33-2.33-1.84-6.89.49-4-2-4.37,2.14-1.75,1.55-5.63-.58,8.35,1.65,2.81,1.55-3.3.87,5.44-1.65,4,4.76,1.75-4.08,1.36,2.14,4,3.49,1.16,1.94-3.4-.19,4.76,3.3-.1,2.14,2.43h.1l.68-.87,1.94-.87,1.26-.49-.1-.19,2.52-7.47v-.29l-.49-1.94v-.1l-9.22,2.72-8.06-23-.39-1.46-1.65.49-6.89,2.14-38,10.58-6.89,1.84-1.75.49Z" transform="translate(-10.63 -21.34)"/><path id="NJ" class="cls-1" d="M916.81,207.31l-.49-1.16v1.16Zm1-3.59.29-2.91-.58,2.52.29.39Zm-4-29.8-10.19-2.52-1.75-.49-1.65-.39h0l-4.08,9,1.75,2.14-.1,6.5,1.84.29,3.79,9.9-.19.29-4.76,7,.49,5.34,11.45,3.88.1,4.46,2.62-3.69.39-5.34,2.72-1.84-1.07-4,2-4.76V189.35l-.68-3.4-4.56.1,1.16-4.66.68-7.47h0Z" transform="translate(-10.63 -21.34)"/><path id="NY" class="cls-1" d="M913.51,181.78l-1.46,2-.39.58ZM926.9,177l4.85-4.27v-.19L926.9,177Zm-12.72,3v-3.3l-.29,1.75Zm22.52-15.53-1.16-.29-.19.87Zm2.62-1.75-.1,1,.19-.58-.1-.39Zm-2.72.1-6.5,6-10,4.27-2.62,2.23-.19,2.14-2.72,2.23.39,2.91,4.17-1.65,6.11-5,6.79-3.59,10.29-9.71-7.28,5.53-2.33,1,3.88-6.41Zm3-4.08.39-.58-1.16,1.36Zm-109.1-3.59L829,155l1.16,1.55.39-1.36Zm32.22-29.7.19-1.07-.78,1,.58.1Zm.49-7-.39.19-.49,1.07.87-1.26Zm-41.06,55.13.68,2.91L828,177.8l29.51-8.06,29.7-8.93,5.44,4.17,1.07,2.43,6.31,2.72.19.39,1.65.39,1.75.49,10.19,2.52-.19-.49.87,4,1.94-.49,1.07-4.37v-.1l-1.75-1.65,2.52-3.11-1.16-1.46L913.41,152l-.19-1-.49-.29-.29-4.27-.29-4.66-.29-5v-.29l-.19.1-4.85-15.92-5.14-8.06L900.21,103l-4.37-10.19-.58.29L875,99.86l-4.08,4.37L866.33,113l.19,1.94-6,9.12,3.69,1.26,1.07,6.89L861,137.81l-12.81,7.77-2.43-1L836.24,146l-8.83,5.34.49,2.81,3.11,2.72-1.75,8.54-7,8.15-.1.1Z" transform="translate(-10.63 -21.34)"/><path id="PA" class="cls-1" d="M900,170.13l-6.31-2.72L892.64,165l-5.44-4.17-29.7,8.93L828,177.8l-5.14-1.26-.68-2.91-1.65,1.26-2.62,1.84-4.76,4.85-.58.49L815.28,194l.49,2.14,2.43,10.48.49,2h0l4.27,18.44,13.78-3.4,1.94-.49,1.75-.49,6.89-1.84,38-10.58,6.89-2.14,1.65-.49h0l.78-1.94,1.75-1.36h2.33l.29-.87,3.79-4.27.39-.68.29-.19-3.79-9.9-1.84-.29.1-6.5-1.75-2.14,4.08-9h0l-.19-.39Z" transform="translate(-10.63 -21.34)"/><path id="ME" class="cls-1" d="M946.8,118.4h-.1l.19.1-.1-.1ZM954,97.72l-.78-1.16v.58Zm-1.36-1.07v-1l-.1-.58Zm3.49-4.08-.19-.1.1.29.1-.19Zm9.71-4.85-.19-1.46-.39.68Zm-2.43.58.1-1.07-1.16.19,1.07.87Zm3.59-3.2h-.39v.19Zm-4.85,1.46-.87-.19-.1.87,1-.68Zm5-3,.87.68-.29-.78Zm-2.62.1-.87,1.65,1.16-.58-.29-1.07Zm-4.17.1-.39.58.29.87.1-1.46Zm5.73-3.2-.1-.78-.29.49.39.29Zm-.49.39-.87-.78v.68Zm-5.44,2.23-.19-1.07-.39.87Zm9.22-3.4-1.46,2.14-.1-1.55Zm7.09-6.5-.68-1-.39.19ZM979,68.9l-.58-.29-.1.29H979Zm1.26-7.57h-.87l1,.29-.1-.29Zm1.46,1-.29-1.75-.78-.1Zm-1.55-1.55L980,58.9l-.68,1.26.87.58ZM923.89,76,938,109l.19.68,6.11,7.47V117l1-.29.19-5.53,1.55-1.94,1-5.14-.87-.87,1.65-5,5.63-2.62,3.69-4.46,1.36-7.77,5.92-.39-.78-4,7.38-2.81.49-4.37,1.75.39,4.85-4,2.14-5.14-5-5L971,57.06l-1.94-4V50.75l-3.2,1-3.59-1.26v-4l-9.71-21-7.09-3.69-7.86,6.6L935.44,28l-1.84-3.4-2.52,1-3.59,17.86,1.26,5.82,1.07,11.84L927,70.26l1.94,1.46-2.33,4.46-2.52-.39-.19.19Z" transform="translate(-10.63 -21.34)"/><path id="MI" class="cls-1" d="M720,138.2l-.49-.78-.1,1Zm1.55-1.75-1.16-1.55-.19.68Zm1-7-1-.87v.19Zm-2.43,76,12-1.94,3.4-.68,14.85-2.62.29,1.26,1-.29,6.41-1.36,6.11-1.46,6.21-1.55-.1-.29,3.2-6.31-.29-5.24,3.59-9,2.81,1.65,1.07-2-.29-7.77L777.72,163l-3.88-10.29-3.4-3.79-1.75-.49-6.31,4.37.68.87-3.3,6.21-3.2-.58-1-6.5,1.36-.49,2.81-6.5.29-11.45-4.37-9.71L746,123l-1-1.46-9-2.62-4.08,5,.39,4.37-3.11,3.88.68,6-3,2.14v-7.57l-2.72,5.73-3.2,5-2.14,1.65,1.07,5.34-1.36,5.53.78,6.89-1,3.4,7,13.39.87,5.14-.87,9.51-4.66,10.68-.58.39ZM740.83,118l-2.52.19,1.55,1.16,1-1.36Zm-14.75,2.52h-.78l.87.39Zm17-12.33-1-1.55-.39.1,1.36,1.46Zm-87.94,7.09,3.11,1.75,15.92,4.85,7.38,1.94,7.18.49,5.24,4.27v6.6l4.66,4.66v-.1l3.79-11,4.56-3.2,3.49-3.88.58,3.49,3.59-5.53,8.64-3.3.68-1.36,8.74,1.07,3.4,1.75,1.65-4.27,1.55,1,6.79-1.07-1.65-2.72-3-1.75.58-6.31-5.92,3.3-5.44-.68-1.75-4.17.58-1.36-7.38,3.49-4.76.29-8.54,5.24-1,1.94-5.24-1.26-3.3,1.46-6.6-5.73L678,100.73,677.74,99l-9.42,9L663,109.37l-7.57,5.73-.29.19Zm34.36-22-11.36,5.63,3.79,3.69,1.46-3.69,3.88-4.76,2.23-.87ZM676.77,80,669,85.3l-.39,2.62,6.11-4.46Z" transform="translate(-10.63 -21.34)"/><path id="AK" class="cls-1" d="M101.28,543l-.49.19.39.1.1-.29Zm3.59.58h0v0Zm-1.75-1.65v.29l.19-.1-.19-.19Zm-.87-.49v-.1h0Zm1.84,1v-.19l-.1.1.1.1Zm-.19-.19v-.1h-.19ZM28.19,478.41l-.1.68.19,1.94Zm-.49-2.62.1.87.1-.29ZM103.9,541l.1-.58-.39.19.29.39ZM115,545.77l-.1-.1.19.39-.1-.29Zm-7.18-3.4-1.07-1v2.33Zm2.43,2.14-.1-.68-1.65-.1,1.75.78Zm5.82,1.36-.1.19h.19l-.1-.19Zm.39.1h-.19l.39.1Zm1.16.39h0ZM31.88,480.54l.39.1.29-.1ZM115.45,545l-.78-.1.29.29.49-.19ZM26.64,473l-1.36-.58-.1.29,1.46.29Zm91.24,72.21-.19-.1v.1Zm5.92,1.16-3.79.29-.87.39ZM19.75,457.73H18.68l.19.29Zm115.8,93.08v-.39h-.19Zm5,.1.19-.19-.19-.19Zm3.79,1.07.19-.1h-.1l-.1.1Zm-3.11-1.75-.1-.39H141l.29.39Zm6.5,1.46-.1.1h.1ZM20.33,452.78l-1.46.19,1.84,1.65-.39-1.84Zm122.3,97.45.19-.58h-.1l-.1.58Zm16.4-1.46.1-.19-.19-.1.1.29Zm-2.43-.87-3.4,3,2.43-.19,2.81-2.23-1.84-.58Zm6.11,1.07-.68-.19.49.39.19-.19Zm1.36.1-1.07-.29-.19.1Zm-3.69-1.36h-1.07l1.84.49Zm4.46,1-.1-.19-.39.1.49.1Zm-2.91-1.16-.39-.19v1.07Zm12.42,2.43-.1-.1h-.19l.29.1Zm.19-.1v-.1l-.19-.1.19.19Zm-1.65-.58.19.39v-.1l-.19-.29Zm.87,0-.87-.29,1.07.78Zm1.26-1h0v0Zm11.55,1.46-.19-.39h-.1l.29.39ZM291,543.24l-.19-.19.1.19h.1Zm-117.64,3v-.1l-.1.1Zm120.46-4.76.29.39h.19Zm-106.09,7.28-.1.1v.29l.1-.39Zm-12-1.75.19-.78h-.1l-.1.78Zm123.76-7.77-.87.49.78.39.1-.87Zm-122,7.28-.1-.19.1.19Zm-7.28-2.14-2.43.49-2.14,2.81,4.56-3.3Zm17.37,3.69-.58.49.58-.1v-.39Zm111.91-9.32-.19-.39-.1.19.29.19Zm-121.23,6.79-.68-.1.68.68v-.58ZM293.08,540l-.19.19.19.68Zm-113.27,5.44-.29.1.39.29-.1-.39Zm7.18,2h-.29l-.19-.19Zm-8-2-.49-.29.19.29Zm6.5,1.07-.87.29-.58,1.55,1.46-1.84Zm105.41-6.79v.68l.39-.49-.39-.19Zm-116.86,3.69.78-.19h-.1l-.68.19Zm-1-.58-.19-.19v.1l.19.1Zm117.83-3.79-.19-.1-.1.29.29-.19Zm-106.48,5.82-.19-.1-.19.29.39-.19ZM290,539.27l.1-.49-.19-.1.1.58Zm-.78-.49-.29.39.49.1-.19-.49Zm-100.65,4.76-.19-.19h-.1l.29.19ZM288.91,537l.78.29.29-.39-1.07.1Zm1.16-.68-.29.19.49.29Zm-2.23.58-.19-.39-.19.19.39.19Zm9.71-3.59-1.26,3.59,1.26-.78Zm-115,7.47h0ZM289,534.7l-.87.87.19,1,.68-1.84Zm-90.37,7.77v-.39l-.1.19Zm89.3-8.74,2.81,4.27,6.31,4-1.46-3.4-6-5.14-1.65.29Zm-93.18,7.18-.1-.29-.19.1.29.19Zm96.48-8.83-.39,1.46.68-.49-.29-1Zm2,0-.1,1,.87.29-.78-1.26Zm-95.41,7.57-.49-.1-.49.19,1-.1Zm10,.78-.39.68.19-.58.19-.1Zm1.46.1-.87.1.49.58.39-.68ZM150.49,528.1l1,.49-.19-.19-.78-.29ZM189,537.71l.1-.1-.1.1Zm.29-.1h.1v-.1Zm100.36-7.47.49,1.84,1-.58-1.46-1.26Zm-97.74,6.41.1-.1h0Zm93.57-5.63.49,4.46,1-1Zm.49-1.46,2.23,3.11-.29-2Zm-6.89.78-.58,1.84.78-1.26-.19-.58ZM201.45,535l-.1-.1.1.1Zm9.22.19-.19-.29.19.39v-.1Zm68.62-6.41,3.88,6.41-.58-4.37-3.3-2Zm-63.19,3.4-.29.29.49.19-.19-.49Zm-1.26.19.1-.29h-.39l.29.29Zm-1,0L211.35,534l-3.11,4.08,1.55,1.65,7.18-5.34Zm61.25-6.31-.68-.39v.58l.68-.19Zm-61.83,5.14.1.39.68.39-.78-.78Zm63.67-7-1.94,1,1.84.58.1-1.55Zm-1.26,0-.19-.19-.1.19h.29Zm5.92-1.55-.78-.29-.19.58Zm-4.17.68-.68-.1v.19l.68-.1Zm2.14-.78,4,5.82-1.07-5.34-2.91-.49Zm-64.06,6.31-2.33,1.75,1.07,1.16,3.11-2.33-1.84-.58Zm-26.4-3.69-.1-.1v.1Zm-1.07-.49-.1-.49v.19Zm29.8,1.26-.19.1v.1l.19-.19Zm-1-.19h-.1l-.19.29.29-.29Zm2.33-.78-.29-.19v.1l.29.1Zm.78-.1-.29-.19v.1l.29.1Zm-1.26-.29h-.39v.1ZM238,522.67l.1-.29-.19.19.1.1Zm5.92-3.11,1.16-1.46-.39.29Zm-11.84-.19.39-.29.1-.39-.49.68Zm0-1.07-.39.29.68-.19Zm-15.92,0-.1-.39H216l.19.39Zm15.53-.1-.39.39-.19.39ZM242.41,517h0Zm.49,0-.19-.1v.1Zm-1.16-.1.1.1v-.1Zm-8,.58.39-.39-.49.39h.1Zm5.92-1.16Zm-4.76.29-2.33,3.79,3-3.49Zm-3,.49-.29-.39-.1.19.39.19Zm7.38-.87-.19-.1.1.1h.1Zm2.52.19v-.68l-.19.29ZM170.59,509l-4.66-.19,3.2,3.4Zm66.29,6.89.19.68.49-.78-.68.1Zm-3.88-.1-.29,2.14.49-1.36Zm-84.25-16.11.1-.39h0ZM232,514.42l.1.29.19-.1-.29-.19Zm-.49.39-.19-.58-.29.19Zm4.56-1.16v-.39l-.29.19.29.19Zm-4.37-.58v1l.29-.68Zm-7.38-1.16v-.29h0Zm-50.67-12,.19-.58-.1.1-.1.49Zm.29-1-.1-.1-.1.1H174Zm4.27-2.33v-.1h0Zm0-.39-.1-.19h0Zm1.75-2.52Zm.58.19-.39-.19v.1l.39.1Zm-.58-.39v-.19l-.19.19Zm-15.53-4.56-.19-.49-.1-.29.29.78Zm1.46-1.75h.1l.1.1-.19-.1Zm-2.62-.49-.78-1,.58.78.19.19Zm-1.55-1.55h-.19l.29.1-.1-.1Zm.19-1.07Zm-.19-.1h0l.19.1Zm25.72,7.67-1.07.1.58.29.49-.39Zm-26.79-9.42-.78,2.91,2.43.39,3.2,3.3,1.94-.87Zm17,1.16v0Zm-4.85-10.29-.19-.1.1.1h.1Zm2.81,1,.29-.1h-.1l-.19.1Zm1.94-.58h.29l.87-.39-1.16.39Zm3.49-1.07.19-.19-.29.19h.1Zm.49-.1.58-.29-.49.1-.1.19Zm1.46-.58-.49.1v.1l.49-.19Zm.58-.1Zm61.73-17.47-.39-.29-.68-.29,1.07.58ZM194.46,452l.87-1.16-.49.39-.39.78Zm1.16-1.36.39-.58-.19.19-.19.39Zm.58-.78.68-.58-.39.19-.29.39Zm30.57.19.49.49h.29Zm-15.63-6.41-4,3.3-2.43-.68-5.63,3.2-1.07-.68L191.65,456l-6.5,1.46.58,3.49,2.91,4,5.44,5.24-.87,2,4.08,1.75-2.14.39-2.62-2,1.36,3-1.75,1.07-5.53-5-4.37.78-7.47,2.81,3.4,3.79-.49,2.33,2.23,2.72,7.38,2.91,5.34-2.72.87,2L192,492.09h-4.46l-5.24,2.33-.29-1.65-2.72,1.07-1.26,2.81-4.46,3.4v5l1.75.78L174,510l5.82,5,3.69-1.55-.78,6.21,1.07,1.36,4.46,1,1.65,1.84,3.88.29,1.84,1.94,4-1.16-1.84,2.52-1.46,5.14-11.84,7.67-1.55,1.55-2.23-.87-3.59.87-5.14,3.4,8.06-2.33,1.16,1.75,10.39-3.4.29,1.36,4.08-4.08,8.54-5.92.68.39,7.47-5.92-1.94-2.33,2.52-4.17,6.6-7.86,5-1,1.55,1.07-6.11,1.75-1.65,6.5.19,3.49,2.14-.19,10.29-6.21.78-2.33-.87-3.59,3.11.78,2.23-1.46,6.41,3.88-.49,1.07L257,518.3l3.4-1.07,1,1.46,12.62,6,2.14-1.26.19-7.28,1.65,3.3,8.15,5.92.68,2.43,7.09,4,1.84,5.14,1.75-4,3.59,7,2.43-4-1.94-5-7.47-.78-11.45-11-6.21-4.56-4.76,4.66h-2.81l-6.5-4.27-6.41-.29-9.12-57.56-1.55-2.72-3.69-2.23L236,453.36l-4.27-.87-5.44-2.14-5.73.39L219.12,448l-4.56-.68-.78-1.65-2,2.33-.58-4.37Z" transform="translate(-10.63 -21.34)"/></svg>