<svg id="usa_map" data-name="usa map" xmlns="http://www.w3.org/2000/svg" viewBox="0 0 832.38 520.5"><defs><style>.cls-1{fill:#41423e;stroke:#62635f;stroke-linejoin:round;stroke-width:0.97px;}.cls-2{font-size:19px;fill:#fffdfd;font-family:AkzidenzGroteskBE-Cn, Berthold Akzidenz Grotesk;}.cls-3{letter-spacing:0.02em;}</style></defs><title>map-clean</title><path id="MA" class="cls-1" d="M813.68,131.71l-.29-.19v.29l.29-.1Zm-2.91-2.62.68-.29v-.39Zm12-7.57-.1-1.36-.19-.78Zm-42.42-10-.68.29-5.53,1.65-1.94.68-2.23.68-.78.29v.29l.29,5,.29,4.66.29,4.27.49.29,1.75-.49,7.86-2.33.19.49,14-5.34.1.19,1.26-.49,4.46-1.75,4.27,5.14h0l.58-.49.29-1.46-.1,2.33h1l.29,1.16.87,1.65h0l4.56-5.53,3.79,1.26.87-1.94,6.21-3.3-2.61-5.06.68,3.3-3.2,2.43-3.59.29L806.9,112l-3.2-4.85,3.2-3.4-3.3-.19-1.36-3.2-.1-.19-5.53,6-12.24,4.08-4,1.26Z" transform="translate(-7.2 0.02)"/><path id="MN" class="cls-1" d="M415.92,52.51l1.94,6.89,4.08,24.85,1.94,9.9.58,8.74,2.23,5.24.49,4.46.39,1.46-.1.29-3.88,6.41,2.52,4.27L431,159.19l.19,4.46,4.85-.29,19.12-1.07,47.76-4,4.76-.49v-.49l-1.36-7.47-5.92-3L495.7,142l-7.33-4.46-2.33-.19-3.67-2.68,1-13.39-3.4-3.11,1.16-5.44,6.24-5.66L486.3,95.41l2.23-2.52h0l7.57-8,8.64-11.07,3.3-2.33,5.82-2.81L520,64.12l-4.08.78-2.43-1.84-9.32,1.26-1.46-1.75L494.37,66l-6.7-2.81L485.83,61l-5.34.39-3.59-1.84,1.16-1.36-4.58-1.49h-4.11l-6.5,2.81-1.26-1.94L451.37,56.1l-3.49-8.74-.39-2.62L443,43.48l.39,7.47-11.84.87-14.66.58-1,.1Z" transform="translate(-7.2 0.02)"/><path id="MT" class="cls-1" d="M323,51.66,290.9,49.52l-23.39-2.23-23.3-2.72-14.46-1.94L206.65,39,195.1,37.1l-25.82-5-2.72-.58-4.19,19.82,1.84,3.59,1.46,5.53-.87.78,1.84,5,2.52,2.14,7.18,12,.68,2,2.91-.19-3.4,15.92-1.36.39-1.8,5.45,9.61.68.78,4.46,5.44,13.3,1,.78,3.79,7.77,1-.78,8.06-.1,10.19,1.07,2.52-3.3,3,5.44.58.29.1-.58,1.36-9.51,33.2,4.08,26.37,2.51,14,1.16,25,1.44,1.26.1h.29l.1-1.36.29-6.7.39-8.83.1-2.23.19-3.88,1.55-30.48,1.24-23.62.1-3.88-1.84-.1Z" transform="translate(-7.2 0.02)"/><path id="ND" class="cls-1" d="M413.88,52.51l-29.31.58L364.09,53l-17.57-.39-20.58-.78-1.07-.1-.1,3.94-1.26,23.68L322,109.82l-.19,3.84,3.79.19,42.8,1.16,39.5-.29,16.4-.49,3.3-.19-.39-1.46-.49-4.46-2.23-5.24-.58-8.74-1.94-9.9-4.08-24.85-1.94-6.89h-2Z" transform="translate(-7.2 0.02)"/><path id="ID" class="cls-1" d="M166.46,31.54l-8.64-1.75L155,29.11l-1.26-.29L142.49,79.49l.49,4.17L142.59,88l.19,1v.1l.1,1.84,3.3,3.59-4.76,11.94-10,13.16-.29,2.43,2.62,6.21-9.22,38.24-.39,2,2.72.58,27.42,5.54,11,2,2.81.49,2.72.49,14,2.23,25,3.79,2.81.39.39-3.2.87-6.31,3.3-25.24,1.75-12.52.39-3.2-.58-.29-3-5.44-2.52,3.3L203,130.08l-8.06.1-1,.78-3.79-7.77-1-.78-5.44-13.3-.72-4.45-9.61-.68,1.84-5.34,1.36-.39L180,82.33l-2.91.19-.68-2-7.18-12-2.52-2.14-1.84-5,.87-.78-1.46-5.53-1.87-3.73,4.17-19.8h-.08Z" transform="translate(-7.2 0.02)"/><path id="WA" class="cls-1" d="M49.5,55.71l.1-1.65-.19.1.1,1.55Zm20.67-8.83.58-1-.68-.1.1,1.07Zm-1.8-1.75L69,43.19,68.37,43Zm7-2.81-.1-1.94L73.62,42.9Zm.19-4.08.29-1.94-.19-.49-.1,2.43Zm.29-9.51-.1-1.07-.39-.1.49,1.16ZM79,22.32l-.87-.1-1.72,2.72Zm-2.38-2.66.49-.39.1-.29-.58.68Zm-.49.29L75.8,18l-.87,1.65Zm-.49-2.72-.87-.39.68,1,.19-.58Zm2.91,1.65V17.66l-.29.49Zm.86-1.22L79,17.37h-.1Zm-5.53-2.14-.49-.39-.19-.1Zm3.59-.39-2.62.68.68.19Zm-2.06-.19-.49-.58-.1.1.58.49Zm2-1.16H77l.49.19Zm-19,49.79,3.49,3.79-.61,7.3.68,1.84,5.24,2.81,14.75,1.35.58,1.75,7,.1,6.6.87,10.77-1.16,5.34.87,1.46-.68,27.27,6.25,1.84.39-.19-1,.39-4.37-.49-4.17,11.26-50.67-1.55-.29-22.71-5.34-19.8-5L87.27,12l-6.7-1.65,1.55,8.44-1.46,2.72L78,20.15l2.52,11.74-2.72,3.88-1.26,3.59v3.69l-5.73,4L68.42,45.5l-2.33,1.16L70.37,41,69.3,44.84l2.43-2.62,1.94.39-.58-4.85,1.26.19L77,32.13l-.87-.87-3.4,4.4-2.23.1L72.9,33l2.72-.68-1-5-2.69-.7-1.36-2.3-1.65.87L60,21.35l-7.86-6.11L50,21.16l-.19,2.5,1.65,4.46L50.37,42.61l-.78,2.23,4.37.39-4.37,3.11,2.33,1.16-1.84,6.21-.87-4.85-1.65,5.63,2.23,2.72L52.22,59l2.91,1.75,1.46,2.81h1.78Z" transform="translate(-7.2 0.02)"/><path id="AZ" class="cls-1" d="M229.56,288.56l-32.71-4.08L179.28,282l-25-4-2.52-.39v.19l-4.32,18.9-2.23-.1-3.4-3-4.27,3.59-.1,15.43-1.55,3.3v.39l-.19,2.43,3.4,9.12,3,4.08-5.44,3.2-2.14,4L131,347.64l-1.75.39-.1,7.09,3,2.23-1.55,4.27-3.49.19h0l-2,3.79,7,4.37,13.2,7.38L186.11,399l34.55,4.27h.39l2.72-28.63.68-7.09,7.28-75.13.39-3.49-2.52-.29Z" transform="translate(-7.2 0.02)"/><path id="CO" class="cls-1" d="M347,234.21l.39-19-4.66-.19-23.68-.87-2.33-.1-1.94-.1L286,212.11l-19.22-1.55-24-2.33-2.33-.29-.29,2.52L234.87,261,233,278.66l-.78,7.67-.19,2.52,3,.29L284,293.41l21.55,1.36,21.45,1,3.11.1,1.94.1,4.08.1,1.94.1,6.11.19h1.55v-1.94l1.07-51.35.1-5.73V235.5l.1-1.26Z" transform="translate(-7.2 0.02)"/><path id="NV" class="cls-1" d="M152.2,274.49l10.09-62.83,5.14-31.45.58-3.11-2.81-.49-11-2-27.47-5.44-2.72-.58-2.72-.58-13.69-3L83,159.19l-2.72-.68-.87,3.69-13.2,56,11.5,16.46,11.84,16.4,21,30.09,15,21.16,7.78,10.42,2.52,3.4v-.29l1.55-3.3.1-15.43,4.27-3.59,3.4,3,2.23.1,4.27-18.83v-.19l.49-3.11Z" transform="translate(-7.2 0.02)"/><path id="NM" class="cls-1" d="M329.82,303.42l.1-2.52.1-2.52.1-2.52-3.11-.1-21.45-1L284,293.4l-48.92-4.27-3-.29-.39,3.49-7.33,75.15-.68,7.09L221,403.2l.39.1,13.39,1.26,1.26-6.79,2.43-1.94,27.18,2.43h.19l-2.43-4.76,12.33.87,30.77,1.75,19.22.87,3.3-91,.68.1.1-2.62Z" transform="translate(-7.2 0.02)"/><path id="OR" class="cls-1" d="M19.61,141.42,35,146.08l41.54,11.45,3.79,1,2.72.68L107.65,165l13.69,3,2.72.58.39-2,9.22-38.24-2.62-6.21.32-2.5,10.09-13.2,4.76-11.94-3.3-3.59-.1-1.84V89L141,88.6l-27.27-6.21-1.46.68-5.34-.87L96.14,83.36l-6.6-.87-7-.1L82,80.64,67.21,79.28,62,76.47l-.72-1.81.58-7.28-3.46-3.81-.29.1-.68.49-4.89-2.5-2.91.87-1.94-1-2,8.35L44.3,72.21l-6,14.66-1.75,8.06-1.07.1-5.63,13.39-3.79,5.73-1.36,1-3.49,6.79-.68,7.18-2.16,6.38,1.26,5.82v.1ZM55.14,61.73l-.29-.87-.1.68Z" transform="translate(-7.2 0.02)"/><path id="UT" class="cls-1" d="M209.76,183.66l-25-3.79-14-2.23-2.72-.49-.58,3.11-5.17,31.4-10.09,62.8-.49,3.11,2.52.39,25,4,17.57,2.52,32.71,4.08,2.52.29.19-2.52.78-7.67L234.84,261l5.24-50.57.29-2.52-1.94-.19-24.75-3-3.79-.49,2.48-18.93.19-1.26-2.81-.39Z" transform="translate(-7.2 0.02)"/><path id="WY" class="cls-1" d="M318.76,170.83l.78-15.14,1-20.38.1-2.52-1.27-.13-25-1.43-14-1.16-26.5-2.52-33.2-4.08-1.3,9.5-.1.58-.39,3.2-1.75,12.52-3.3,25.24-.87,6.31-.39,3.2-.19,1.26-2.43,18.93,3.79.49,24.75,3,1.94.19,2.33.29,24,2.33L286,212.06l28.83,1.84,1.94.1.1-2.52.49-10.19.87-17.76.39-7.57.1-2.52.1-2.62Z" transform="translate(-7.2 0.02)"/><path id="AR" class="cls-1" d="M547.83,306.72l-10.46,1.55,4.27-6.79-1.87-3.82-37,3.59-31.25,2.52-4.56.29.58,2.72,3.83,19.64.1,4.37,1.07,26.4.1,4.37.29.1,1.46,1.55,5.82-.19.58,8.54L481,374l3-.29,9.22-.68,36.57-3.36H530l-.1-2.14,1-.68-1.75-3.3L532.8,348l-1.43-1.79,5.53-6.11-.39-5.24,4.08-6.79V328l-.19-.19,3.49-3.2-1-3.88,2.72-4.27-.58-4,2.91-5.63v-.1h-.11Z" transform="translate(-7.2 0.02)"/><path id="IA" class="cls-1" d="M518.9,176.36l-5.34-2.81-2.91-4-1-5.73.78-2.62-2.81-3.4h0l-4.76.49-47.76,4L436,163.36l-4.85.29-2,.1,1.65,10.77-1.41,5.14,2.14,3.2v.68l.68.1,3.18,9.12,3,4.76.19,5.44,3.3,4.56-.58,1.94,3,12.23V222h0l19.9-.58,21.19-1.85,20.87-2.62L511,221.1l.19.19.87-.39-.68-3.79,3.59-2.23,1.46-9.9L515,204.3l.87-5,4.37-.87,4.85-3.49,2.14-6.11.17-3.17L523.49,182l-1.19-2.31-3.69-2.33.19-.49.1-.49Z" transform="translate(-7.2 0.02)"/><path id="KS" class="cls-1" d="M466.29,291.38l-2.43-41.06-4.37-2.52-.39-1.94-3.49-3.11,3.4-4.17-1.36-2.43-2.52.1-2.33-1.65-1-.78-3.3.19-35.82,1.36-16.4.39H363.7l-13.1-.19-3.69-.1v1.84l-.1,5.73-1.07,51.35v1.94l4.17.1,22.52.29,52.71-.78,37.56-1.75,3.69-.29-.1-2.52Z" transform="translate(-7.2 0.02)"/><path id="MO" class="cls-1" d="M511,221.11l-4.76-4.17-20.91,2.61-21.26,1.84-19.9.58h0l-.1.58,2.43,4.66,2.23,1.55,2.62,4.66.39.39,1,.78,2.33,1.65,2.52-.1,1.36,2.43-3.4,4.17,3.49,3.11.39,1.94,4.37,2.52,2.43,41.06.1,2.52.19,2.52.1,2.52.19,2.62.1,2.52,4.56-.29,31.25-2.52,37-3.59,1.84,3.79-4.23,6.81,10.48-1.55h.1v-.78l.19-4.46,1.94-2.43-.58-2.72-.1-.1-.1-.1.39-1.26.58.19.29.78-.1.29V297l.39.1.78-1V296l.1-.29,2.52-1.55.39-.19.87-8-.19-.39-.29-.1-6.89-5.63,1.07-2-1.94-5.53-3.52-2.66-6.6-2.91-4.17-3.4.49-7,1.26-6.5-7,.39L525.59,248l-1-4.46-11.07-9.32-3.11-8.64.78-4.27h0l-.19-.19Z" transform="translate(-7.2 0.02)"/><path id="NE" class="cls-1" d="M429.7,183.35l-3-3-10.58-3.11-3.4-.1-5.14,1.46-6.13-3.94-19.12.19-27.85-.19-32.9-1.07-2.91-.1-.1,2.52-.39,7.57-.87,17.76-.49,10.19-.1,2.52,2.33.1,23.68.87,4.66.19-.39,19-.1,1.26,3.69.1,13.1.19H396.3l16.4-.39L448.52,234l3.3-.19-.39-.39-2.62-4.66-2.23-1.55-2.43-4.66.1-.58v-.32l-3-12.23.58-1.94-3.3-4.56-.19-5.44-3-4.76-3.12-9.07-.68-.1-1.84-.19Z" transform="translate(-7.2 0.02)"/><path id="OK" class="cls-1" d="M466.88,301.57l-.19-2.62-.1-2.52-.19-2.52-3.69.29L425.15,296l-52.71.78-22.52-.29-4.17-.1H344.2l-6.11-.19-1.94-.1-4.08-.1-1.94-.1-.1,2.52-.1,2.52-.1,2.52-.1,2.62h.58l23.49.58,24.85.29.29,33.2,1.75,5.82,3.88,3.74,4.17.19.87-1.75,5.73,5.24,7.47.78,1.36,1.54,2.72-1.26,6.79,3.2v1.84l2.52-.1,2.62-2.23,4.85,3.11,4.56,1.65,3.11-4.27,9.9,4.66,3.69-3,3-1.16,2.44.56,9.12-2.62,4.85,2,4.37,2.81,3.79.68h.1l-.1-4.37-1.07-26.4-.1-4.37-3.79-19.61-.58-2.72-.1-2.52Z" transform="translate(-7.2 0.02)"/><path id="SD" class="cls-1" d="M424.26,114.24l-16.4.49-39.5.29-42.8-1.16-3.79-.2-.1,2.23-.39,8.83-.29,6.7-.1,1.36h-.29l-.1,2.52-1,20.38-.78,15.14-.1,2.62,2.91.1,32.9,1.07,27.86.29,19.12-.19,6.11,3.88,5.14-1.46,3.4.1,10.58,3.11,3,3,1.84.19v-.68l-2.11-3.19,1.36-5.14-1.65-10.77,2-.1-.19-4.46L426,125l-2.52-4.27,3.88-6.41.1-.29-3.3.19Z" transform="translate(-7.2 0.02)"/><path id="LA" class="cls-1" d="M546.37,447.94l-1.26.29-.58.58Zm4.08,0-.68-.29-.19.29Zm2.33-.78h-.68l-.39.49Zm-1.16-.68-.19-.29-.1.29Zm7.77-5.14-.29.19h.49l-.19-.19ZM573,435.66l.58-.78-.68.87.1-.1Zm1.94-2.52-.19.1v.1l.19-.19ZM525,441.66l1.46-1.84-4-1.07-1.75,1.46,4.27,1.46Zm40.28-8.44-.39-.39-.1.19.49.19Zm1.07-1.75-1-.29.29,1Zm8-1.65Zm1.94-1.26-.1-.1.1.19v-.1Zm-.78-.19-.19-.1-.1.29Zm-6.79-.29.87-.29v-.29l-.87.58Zm.49-.49.49-.49-.1-.1-.39.58Zm-3.4-3.59-.19.19h.1l.1-.19ZM530,369.66h-.19l-36.59,3.4-9.22.68-3,.29.1,2.33L483,395.09l3.2,4.46.1,2.62,3.06,5.39,2.52,8L491,420l-.65,11-1.46,3.61h.19l.29,2.52-1.65,2.33,12-1.36,9.42,2.62,6.7.87,3.4-2.43-1.84-2.43,6.21-1.94-.19,2.14,3.2-.78,2.62,4.08,2.23-.78,5.82,4-3.59,1.26,8.25,2.43h3.11l1.84-2.23,4-2.14,2.81,4.08,1.94-3.69-.58-5.82,5.24,2,.58,1.75,6.21.78,3.11,2.52-.39,2,4.37-4.08-1.65-2.14-7.28-1.84-2.72-1.55-.1-2.91,3,.39,2.33-4.76-3-4.17-1.65,4-3.79-.68,2.62-4.27-1.75-.49-4.27,3-6.11.39L548.09,426l2.81-5,3.3-.1,5.63,1.84,4.08.39h0l-2.23-2.81-4.27-8.35,1.16-4.66L525.08,411l1.26-1.26L525,406.22l2-3,1.16-7.57L535.52,383l-3.59-4.37.19-3.2-2.23-5.24v-.56Z" transform="translate(-7.2 0.02)"/><path id="TX" class="cls-1" d="M431.37,515.6,426.71,498v3.3Zm-1.07-30.87-3.3,6.21-.39,2,3.69-8.25Zm2.62-4.56,3.11-4.08-2.23,1.36Zm11-9.9-7.28,3.79,2-.39Zm1-1.36,2-1.65-.78.19ZM329.73,306l-.68-.1-3.3,91-19.22-.87-30.77-1.75-12.33-.87,2.43,4.76.1.1,10.48,10.48,6,7.09,8,5.92,5.63,10.29,2.14,10.77,4.56,3,3.59,4,5.14,1.84,7.47,4.76,3.4,1.26,4.66-4.66,1.46-5,2.43-4.76,7.57-3,2.91,1.46,8.44.68,7.67,4.76,5.24,1-1.46,2.72,3,1.94,2.81,3.4.58,3.59,1.84,2.43,4.27,10.29,4.27,3.59,3.31,5.5,4.17,4.27,1.84.58,1.55,11.07,4.56,2.52.19,3.49,1.16-.29,8,9.71,4,.87,5,3h7.77l5.63,3.11,6.7-1.46-3-2.81-2.72-8.15-1.07-7.09-1.55-2.33.68-4.76-2-.19-2.77-4.54,3.11,3.3,3.59-1.26,1.94-5.14-3.88-5.24,5.82.68,2.72-4.17-.39-1.46,2.43-3.2-.58,2.81,2.72-2.14L435.92,469l3.49,1.84,4.46-2.52-4.37-4.56,2.72,1.07,5,.29,6.6-1.46,7.38-5,4.46-3.69.68-2.72,2.72-2.81-1.46-4.66.29-2.91,4.85-2.14-.39,5.14h2.91l-3.2,2.72L485,440.85l2.14-.1,1.36-6.21h.39l1.46-3.59.68-11.07.87-4.46-2.52-8L486.24,402l-.1-2.62-3.2-4.46L481,376.17l-.1-2.33-.19-2.43-.58-8.54-5.82.19-1.42-1.4-.29-.1h-.1l-3.79-.68-4.34-2.82-4.85-2-9.15,2.6-2.43-.58-3,1.16-3.69,3-9.9-4.66-3.11,4.27-4.56-1.65-4.85-3.11-2.62,2.23-2.52.1v-1.84l-6.79-3.2-2.73,1.28-1.36-1.55-7.47-.78-5.73-5.24-.87,1.75-4.17-.18L380.69,346l-1.75-5.82-.29-33.2-24.85-.29-23.49-.58h-.58Z" transform="translate(-7.2 0.02)"/><path id="CT" class="cls-1" d="M794.37,122l-14,5.34-.19-.49-7.81,2.34-1.75.49.19,1L774.5,145l1.16,1.46-2.52,3.11,1.75,1.65h0l5.63-5.44,3-4.17.58,1.16,14.17-6.31.29-.29-.1-2.33-.58-2-3-8.44-.39-1.07-.1-.19Z" transform="translate(-7.2 0.02)"/><path id="NH" class="cls-1" d="M781.26,54.66,780,56.21l-1.46-.29-.78,6.41v.1l2.33,8.74-.19,1.75-4.17,5.53,1.07,5v6.31L776,95.58l4.35,15.94h0l4-1.26,12.23-4.08,5.53-6h0V98.66l.29-2.52-.68.29-.1-.58-6.11-7.47-.16-.72Z" transform="translate(-7.2 0.02)"/><path id="RI" class="cls-1" d="M803.88,130.74l-.1-2-.29.78.39,1.26Zm1.94-1.55-1.26-2.43-.1,2.52,1.36-.1Zm-.58-3,.68,1.75.87,1.55.58-1.16-.87-1.65-.29-1.16h-1Zm-10.77-4,.39,1.07,3,8.44.58,2,.1,2.33.19-.29,4.66-3.69-.87-6.6,1.94-.39h0l-4.27-5.14-4.46,1.75-1.26.49Z" transform="translate(-7.2 0.02)"/><path id="VT" class="cls-1" d="M780.37,111.52,776,95.6l.78-5.82V83.47l-1.07-5,4.17-5.53.19-1.75-2.33-8.74-1.26.49-5.34,1.94-5.24,2-12,4.37-.68.19,4.36,10.22L759,91.27l5.14,8.06L769,115.25l.19-.1.78-.29,2.23-.68,1.94-.68,5.53-1.65.68-.29h0Z" transform="translate(-7.2 0.02)"/><path id="AL" class="cls-1" d="M575.68,323.51l.39.78,1.36.87L578,365l.19,21.84,5,29.9.39-.1,4.37.87,1.16-8.64,1.94,4.85,3.3,3,6.31-3.69-.68-.58.19.1-4.37-10,41.93-6.79,2.81-.49v-.1l-2.62-5-.19-7.09-2.14-3.88,1.07-7.57,1.7-1.93-7.18-12.81-13-39.6-.1-.19-2.91.49-15.53,2.52-7.77,1-16.31,2.23.1.19Z" transform="translate(-7.2 0.02)"/><path id="FL" class="cls-1" d="M712.06,513.95h-.19l.1.1.1-.1Zm-.87-.1v.1h.1Zm.19-.1Zm-13.2,1.46Zm-.19.1Zm-.9,0H697v.1Zm27.57-6.11h-.1l.1.19Zm2.62-.68v-.19l-.19.29Zm-1-.19-.39-.39-.1.1.49.29Zm-.29.78-1.12-1.45.68,1.26.49.19Zm9.22-5.73v.39l.19-.19Zm1.36-1,.29-.49-.39.39.1.1Zm.29-1h-.1v.1Zm-1.75-.29-.1-.1Zm.87-1.46-.1-.1v.19l.1-.1Zm-2.62-.1-.1-.1Zm3.3-2.23-.19.1.29.1-.1-.19Zm.39,0-.19-.19.1.29.1-.1Zm-.68-.19-.1-.1v.19l.1-.1Zm3.59-.68v-.1l-.19.39.19-.29Zm-4.08.39h-.19l.19.1Zm2-1.16h-.29l-.1.1.39-.1Zm-7.37-.1v-.19l-.1.19Zm.87-.29h-.29l.29.58Zm-2.33.1v-.58l-.49.1Zm-1.36-1,.49.49v-.19l-.49-.29ZM742,495l-1.75.78.58.1Zm-13.59-.87h-.58v.19Zm15.34-4.85.1-.49.1-1.26-.19,1.75Zm.1-5.44-.39-1-.19.39Zm-22.42,2.43-.19.29.49.1-.29-.39Zm-1.84-.87-.87.29.68.1Zm-1.94.19v-.29l-.1.1Zm-2-.1-.58.39.78.39-.19-.78Zm2.72.1-.1-.29-.49-.1.58.39ZM705.61,476l-.58.29,1.16.39-.58-.68ZM703.37,473l-.78-1.16.29.87.49.29Zm3,1.94L705,471.81l-1-.29ZM702.49,471l-.29-.78-.19-.49.49,1.26Zm-8.12-10.77L692.62,459l.68.68Zm43.68-6.5L731,441.93h-.39L738,453.77Zm-49-18.93-.29-.1.29.19v-.1Zm-.58-.68-.1.1.1.1v-.19Zm-.68-1v-.1l-.1.1Zm.39-.39.29.19v-.19Zm.58-.39-.39.1h.1l.29-.1Zm-.68-.1-.29-.29.1.1Zm-.68-1.07h-.19l.29.1Zm.68-1.16h-.39l-.1.1Zm.39.19-.49-.49.19.1.29.39Zm-3.69-4.17-.19-.1v.1Zm-4.17,0-.29-.39.1.49.19-.1Zm-35.33-3.2,2.91-2.23-3.2,2.14.29.1Zm5.82-4.66.29-.29-1.16.49.87-.19Zm-36.88-6.5-10.58,3.4,5.82-1.65Zm26.3-16.5-2.81.49-41.93,6.79,4.37,10,.29.1-1.07,4,3.11-1.36,3.4-3,5.82-.19,6.7-2.43,4.56.68-1.07,1.65,8.35,2.81,7.18,3.49,1.65,3.88,5.3-1.16L657,410.66l4.66.19,19,14.37,3.88-.78,4.08,5.44.78,8.64L688.16,444l.58,2.72,3.4,6.79-1.55-5.34L695,448l.39,3.88-2.33,6L701.08,469l3,.1-2.51-3.42,3.11.39,1.84-1.16-.78,6.21,4.17,3.3,2.81,7.57,3.79,2.33,4.85,1.26,6.7,8.54,3.49,1.84-4.66.29,2.14,2.43,7.67-2.52,3.79-2.14L744,481.77l-1.75-19-.39-1.94-9.32-15.53-8-11.26-4.46-9.22,3.79,3.2.78-.58,1.65,8.06,4.27,6.11-4.17-8.15.19-3.88L714.1,414.36l-3-4.76-4-8.06-2.73-6.79-2.14-2.43-.49-3.11-.1-.1-6.7-.39-2.62,2-1.46,7.47-1.36-3.49-45.81,5.73-3.3-5.14.1-.1Z" transform="translate(-7.2 0.02)"/><path id="GA" class="cls-1" d="M703.22,374.76l-.1-2.91-.68,2.52.78.39Zm1.07-4.46-.39-2.23-.29,1.36Zm-45.42-61.16-1.26.29-3.69.78L640.37,313l-1.26.29-1.36.19L630.18,315l-2,.39-8.25,1.55-1.75.19.1.19,13,39.6,7.09,12.78-1.73,2-1.07,7.57,2.14,3.88.19,7.09,2.62,5v.1l-.1.1,3.3,5.14,45.81-5.73,1.36,3.49,1.46-7.47,2.62-2,6.7.39h0l-.58-10.56,1.26-2.23-.68-4.17,1.36-4,2-2.23-1.42-1.37,3.4-4.17h-.1L701.09,355l-8-11.36-4.37-2L670,326l-4.56-5.82-8.83-3.69-.49-1.94,2.72-5.34h0Z" transform="translate(-7.2 0.02)"/><path id="MS" class="cls-1" d="M574.13,421.44l-.49.1v.1l.49-.19Zm9-1.16h-1.36l1.26.1Zm-11.26,1-.39.39.1.1.29-.49Zm9.12-.78h-3.62l3.49.1ZM540.51,328v.1l-4.08,6.79.39,5.24-5.45,6.09,1.46,1.75-3.69,15.53,1.75,3.3-1,.68.1,2.14v.68l2.23,5.24-.19,3.2,3.59,4.37-7.38,12.62-1.16,7.57-2,3,1.36,3.49L525.18,411l33.49-3.69L557.51,412l4.27,8.35,2.23,2.81v-.1L567.6,419l7.57-1.65,7,.78,1.07-1.36v-.11l-5-29.9-.19-21.84-.58-39.8-1.36-.87-.39-.78h-.19l-4.85.68-8.54,1.16-19.41,2.43-2.14.19Z" transform="translate(-7.2 0.02)"/><path id="SC" class="cls-1" d="M658.87,309.14h0l-2.72,5.34.49,1.94,8.83,3.69,4.56,5.82,18.73,15.73,4.37,2,8,11.36,5.82,5.44h0l1-4.46-1.58-4.25,4.17,3.11,2.33-1.84-4-3.3,4.85-.29,7.57-6.41-.87-1.65,4.66-3.59-.49-1.75,3.4-2.14.19-5,5.34-9.9,3.59-4.56.39-.19-21.65-13.69-8.06,1.55-11-.39L691.37,299l-32.22,10.19h-.28Z" transform="translate(-7.2 0.02)"/><path id="IL" class="cls-1" d="M518.8,176.85l-.19.49,3.69,2.33,1.16,2.33,3.91,3.66-.1,3.11-2.14,6.11-4.85,3.49-4.37.87-.87,5,1.46.68-1.46,9.9L511.45,217l.68,3.79-.87.39h0l-.78,4.27,3.11,8.64,11.07,9.32,1,4.46,2.14,2.23,7-.39-1.26,6.5-.49,7,4.17,3.4,6.6,2.91,3.49,2.72,1.94,5.53-1.07,2,6.89,5.63.29.1-.58-.58,1.94-4.56,7.47,2,1.84-2.14L564.57,276l6.11-3.59L569,270.08l1.46-3.3v-.12l-.39-.1.1-8.64,2.14-1.55,3.63-8.71-.78-3.79-2.43-4.56,1.36-5.14-6.75-47.81-1-1.07-2.52-5.73-2-2.14-.87-5.63v-.19l-13.1,1.84-7.86,1-21.16,2.43h0Z" transform="translate(-7.2 0.02)"/><path id="IN" class="cls-1" d="M607.71,178.88l-14.85,2.62-3.4.68-12,1.94-2.52,2-3.79,1.75-1.46-.1-1.75-.87-.58-.58,6.79,47.85-1.36,5.14,2.43,4.56.78,3.79-3.69,8.64-2.14,1.55-.1,8.64.39.1.39-.1,1.46-2.72h3.59l4.37-1.46,5.44,2,.58-2.23,3.11-2.33,4.66.68,2.52-5,6.89.58-.1-2.81,6.11-8.06-1-3.69,4.27-.1,5.24-4.17-1.26-4.76.19-.19-.19-1.65-5.82-34.36-2.61-14.56-.29-1.55-.29-1.26Z" transform="translate(-7.2 0.02)"/><path id="KY" class="cls-1" d="M550.54,295.84l-.29-.78-.58-.19-.39,1.26.1.1,1.07-.1.1-.29Zm66.39-63.48-.19.19,1.26,4.76-5.24,4.17-4.27.1,1,3.69-6.12,8.06.1,2.81-6.89-.58-2.52,5-4.66-.68-3.11,2.33-.58,2.23-5.44-2-4.37,1.46h-3.59l-1.46,2.72-.39.1V267l-1.46,3.3,1.65,2.33-6.11,3.59L566,280.5l-1.84,2.14-7.47-2-1.94,4.56.58.58.19.39-.87,8-.39.19-2.52,1.55-.1.29,2.81-.39,19.61-2.62-1-3.88,3.3-.1,39.5-5.24,27.76-4.66L644,279l.68-.78,7.28-3.88L657.6,267l.78-2.52,3.69-2.91,4.66-5.92.68-1-.29-.1h-2.43l-3.11-1.87L656,246l-1.94-6.79V239l-.19-.19-4.08-2.33L648,233.35l-3.69,3.59-2.33.58-2.91-1.16-2.52,1.94L631.31,236l-1.36.58-5-4.27L622.43,231l-4.76.58-.78.78Z" transform="translate(-7.2 0.02)"/><path id="NC" class="cls-1" d="M747.58,310.89,746.51,312l.19.19.87-1.26Zm.78-5.63-.49.78.19.78.29-1.55Zm5.82-9-1.46,1-.78,1.16,2.23-2.14Zm12.52-6.11-.58-.39-1.26-.1,1.84.49Zm-2.62-.58h-.87l-1.46.78Zm3,1.07,2.81-7L768,286.55l-.87,4.08Zm4.17-9.22,1.26-1.84h-.68Zm8.15-7.57-2.14-10.77,1.84,5.63.29,5.14Zm-11.84-24.56-.19.1-.29.1h.1l5.34,9,4.17,4.17-9.12-13.39h0Zm-1.75.58-.78.19h0l.19.1h1.65l-.19-.58h0l-.29.1h-.29v.19l-.19.1-.1-.1h0ZM676,272l-.49,1.46.1,4.17-1.07-.1-2.5,5.13-2.81.29L664,288.09l-2.33-.87-3,4.46-8,7.18-3.88,1-4.08,3.79-.19,2.52-3.59,1.94.1,4.27v1l1.26-.29,13.59-2.81,3.69-.78,1.26-.29h.29L691.37,299l5.44,2.81,11,.39,8.06-1.55,21.65,13.69.39-.29,10-4.08.1-5.34,3.59-6.5,3.88-3.69,8.06-5.34,1.07-1.94,2.14,1,1-6.41-1.16,2.23-4.08,1.36-3.88.1,4.76-3.49-1.46-1.55,1.65-3.49-9.21-1.5-.39-.49,7.77-1.46,2.52,1.26,3.2-.29,2.62-1.94,1.94-3.79,1.75-.49-.29-5.34-2.22-2.16-2.23,2,.49,5.14-1.65-6.31-1.26-.29-9.61,4,4.27-4.17.19-1.65,4.46-1.07,1.26-3.3,3,1.75L767,252l-2.23-1.94h0l-38.83,11.07-24.75,6.31-25,4.66-.1-.19Z" transform="translate(-7.2 0.02)"/><path id="OH" class="cls-1" d="M675.56,185.29l-2.43-10.48-.49-2.14-2.72-11.94L666.43,163l-7.47,5.7-4.85,6-3.79.58-7,4-3.88-2.33-11.74-1.36h0l-6.21,1.55-6.12,1.4L609,179.86l-1,.29.29,1.55,2.62,14.66,5.82,34.36.19,1.65.78-.78,4.76-.58,2.52,1.26,5,4.27,1.36-.58,5.24,2.33,2.52-1.94,2.91,1.16,2.33-.58,3.69-3.59,1.84,3.11,4.08,2.33.19.19h0l4.17-2,1.46-3.2-1.16-3.3,3.3-5,2.43-.39-.29-4.27,4-5.44.68.78,3.59-2.72,3.09-4.77.49-21.26.19-.1-.49-2Z" transform="translate(-7.2 0.02)"/><path id="TN" class="cls-1" d="M643.63,279.15l-27.76,4.66-39.5,5.24-3.3.1,1,3.88-19.64,2.63-2.81.39v.1l-.78,1-.39-.1v-.87l-1.07.1.1.1.58,2.72-1.94,2.43-.19,4.46v.87L545,312.49l.58,4-2.72,4.17,1,3.88-3.49,3.2.19.19,2.14-.19,19.41-2.43,8.54-1.16,4.85-.68h.19l-.1-.19,16.31-2.23,7.77-1,15.53-2.52,2.91-.49,1.75-.19,8.25-1.55,2-.39,7.57-1.46,1.36-.19v-1L639,308l3.59-1.94.19-2.52,4.08-3.79,3.88-1,8-7.18,3-4.46L664,288l5.24-5.14,2.81-.29,2.52-5.14,1.07.1-.1-4.17.49-1.46-1.55.29L669,273.71l-6.6,1.36-16.6,3.4-1.75.29-.39.29Z" transform="translate(-7.2 0.02)"/><path id="VA" class="cls-1" d="M766.12,249.66h.25l.29-.1h0l-.19-.49-.39.58h0Zm-3.3-10.87v.49l.49-.29Zm1.75-3.4-.1-.78h0Zm-.58,1.16-.19,1.26-.29.49.49-1.75Zm.87-2.52.1-.58-.19.58h.09Zm.58-2.62.29-.68-.49,1.75Zm.1-1.46.39-2.14-.49.49Zm1.75-9.61.19-.87-.1.19-.1.68Zm-.39-2.23-1.26.49-1.94.87-.68.87.29.1L761,234.9l.87,2.33,1.36-6,2.52-7.86,1.16-5.14v-.12Zm1.94-.78-.29.1-.1.39-.49,3,.39-1.07.49-2.43ZM667.37,254.5l-.68,1L662,261.42l-3.66,2.88-.78,2.52L652,274.2l-7.28,3.88-.68.78,1.75-.29,16.6-3.4,6.6-1.36,5.53-1.55L676,272l.1.19,25-4.66,24.75-6.31,38.83-11.07h0l-.29-.49-.1-.29.68.68h0l.78-.19-.1-.1-.68-3.3.49.1,1.55,2.91h0l.29-.1.19-.1-.39-.78-4-6.11-5,.87-2.23,1.84-2.14-1.94-7.28-2.43-5-.19,9.89-.84,5.44,3.69,1.55-2.43L754,235.39l3.11.19-1.65-4.46-3.88.19-9.2-7.49h-1.16l13,6.41-.87-4.46.87-1.46-6.6-2.52-5.73-.39-2.81-2.52-2.33,1.46-.87-6.7,1,.19-.19-5.44-.19-.19-.19.1-.19-.1-.49-.39-.29-.29-3.11-1.36-3.2-2.33-4.54-1.17-.29-.1v.1l-.58,4.08-9-3.88.19,5.63-5,9.42-3,3.3-1.94,5.73-5.92-2L696,238.14l-2.33,4.46-.39,5.82-1.75,2.81-6.5,1.94-5.34,4.17-2.52.39-2.43,2.14-6.11-2.23-1.07-3-.19-.1Z" transform="translate(-7.2 0.02)"/><path id="WI" class="cls-1" d="M563.16,113.46l-2.43,3-1.46,4.37.68,2.43Zm-55.71-22.8,1.46-2-1.07,1Zm2.23-3.2-.49-.58-1.07.68,1.55-.1ZM488.52,92.9l-2.23,2.52,1.08,11.64-6.23,5.6L480,118.1l3.4,3.11-1,13.45,3.59,2.72,2.33.19,7.38,4.46,4.66,4.85,5.92,3,1.36,7.47v.49h0l2.81,3.4-.78,2.62,1,5.73,2.91,4,5.34,2.81-.1.49h0l21.16-2.43,7.86-1,13.1-1.84-.39-1.46V165.6l-2.62-4.85-.68-6.11,1.26-6.79-.68-5.24,2.33-6.5-.87-1.07.19-6,1.26-4.56-1.46-1.55-2.81,1L554.89,128l-3.69,2.14,1.16-5.14,3.3-4.37.19-1.94.1-.1-4.58-4.75v-6.6L546.13,103l-7.18-.49-7.38-1.94-16-4.89-3.11-1.75-.29.29-5-.68-1.65,1,.68-7.09-8,4.08-9.71,1.55-.1-.19Zm19-5.14-.19-.68-.68.29ZM504,87.08l.29-.58-.19-.19-.1.78Zm7.09-1.65-.29-1.36-.29,1.65Z" transform="translate(-7.2 0.02)"/><path id="WV" class="cls-1" d="M694.1,202.37l-13.78,3.4L676,187.33h0l-.19.1-.49,21.23-3.11,4.66L668.67,216l-.68-.78-4,5.44.29,4.27-2.43.39-3.3,5,1.16,3.3-1.46,3.2-4.17,2h0v.19l1.94,6.79,5.53,6.7,3.11,1.75h2.43l.29.1.19.1,1.07,3,6.11,2.23,2.43-2.14,2.52-.39L685,253l6.5-1.94,1.75-2.81.39-5.82L696,238l2.91-13.2,5.92,2,1.94-5.73,3-3.3,5-9.42-.19-5.63,9,3.88.58-4.08v-.1h0l-2.8-4.7-5.82-.68-3.4,2.62v1.94l-2.91.68-4.27,3-2.23.49-4.46,6.31L696,201.88l-1.94.49Z" transform="translate(-7.2 0.02)"/><path id="DE" class="cls-1" d="M751.17,186.36l.39,1.46,8.06,23,9.22-2.72-.1-.19h.19l.29.1h0l.19-.1-.19-.39-2.33-6.21-11.36-10.77.49-7.47h-2.33l-1.75,1.36-.78,1.94h0Z" transform="translate(-7.2 0.02)"/><path id="DC" class="cls-1" d="M735.55,207.81l.49.39.19.1.19-.1.19.1.68.39.19.29v.68l.19.39,1.26-2.33-1.36-.78-1.65.1-.39.78Z" transform="translate(-7.2 0.02)"/><path id="MD" class="cls-1" d="M768.94,216.93l.68-5.24-.58,3.88-.39,1.65-.1.19.29-.1.1-.39Zm.49-9-.19.1.19.58v-.68h0Zm-73.38-6,2.23,10.19,4.46-6.31,2.23-.49,4.27-3,2.91-.68v-2l3.4-2.62,5.82.68,2.81,4.85h0l.29.1,4.46,1.16,3.2,2.33,3.11,1.36.29.29.39-.78,1.65-.1,1.36.78L737.67,210v.1l-1.84,5.63,6,3.88,6,.29,4,1.84-1.65-4.66L745,215.37l-1.26-4,3.2,4.27,2.62.39-2.33-2.33-1.84-6.89.49-4-2-4.37,2.14-1.75,1.55-5.63-.58,8.35,1.65,2.81,1.55-3.3.87,5.44-1.65,4,4.76,1.75-4.08,1.36,2.14,4,3.49,1.16,1.94-3.4-.19,4.76,3.3-.1,2.14,2.43h.1l.68-.87,1.94-.87,1.26-.49-.1-.19,2.52-7.47v-.29l-.49-1.94v-.1l-9.22,2.72-8.06-23-.39-1.46-1.65.49L742.65,189l-38,10.58-6.89,1.84-1.75.49Z" transform="translate(-7.2 0.02)"/><path id="NJ" class="cls-1" d="M774.18,186l-.49-1.16V186Zm1-3.59.29-2.91-.58,2.52.29.39Zm-4-29.8L761,150.06l-1.75-.49-1.65-.39h0l-4.08,9,1.75,2.14-.1,6.5,1.84.29,3.79,9.9-.19.29-4.76,7,.49,5.34,11.45,3.88.1,4.46,2.62-3.69.39-5.34,2.72-1.84-1.07-4,2-4.76V168l-.68-3.4-4.56.1,1.16-4.66.68-7.47h0Z" transform="translate(-7.2 0.02)"/><path id="NY" class="cls-1" d="M770.88,160.44l-1.46,2L769,163Zm13.39-4.78,4.85-4.27v-.19Zm-12.72,3v-3.3l-.29,1.75Zm22.52-15.53-1.16-.29-.19.87Zm2.62-1.75-.1,1,.19-.58-.1-.39Zm-2.72.1-6.5,6-10,4.27L774.85,154l-.19,2.14-2.72,2.23.39,2.91,4.17-1.65,6.11-5L789.4,151l10.29-9.71-7.28,5.53-2.33,1,3.88-6.41Zm3-4.08.39-.58-1.16,1.36Zm-109.1-3.59-1.5-.15,1.16,1.55.39-1.36Zm32.22-29.7.19-1.07-.78,1,.58.1Zm.49-7-.39.19-.49,1.07.87-1.26Zm-41.06,55.13.68,2.91,5.17,1.31,29.51-8.06,29.7-8.93,5.44,4.17,1.07,2.43,6.31,2.72.19.39,1.65.39,1.75.49,10.19,2.52-.19-.49.87,4,1.94-.49,1.07-4.37v-.1l-1.75-1.65,2.52-3.11-1.16-1.46-3.7-14.25-.19-1-.49-.29-.29-4.27-.29-4.66-.29-5v-.29l-.19.1-4.85-15.92-5.14-8.06-1.47-9.61-4.37-10.19-.58.29-20.26,6.76-4.08,4.37-4.59,8.77.19,1.94-6,9.12,3.69,1.26,1.07,6.89-4.28,5.6-12.81,7.77-2.43-1-9.52,1.42L684.78,130l.49,2.81,3.11,2.72-1.75,8.54-7,8.15-.1.1Z" transform="translate(-7.2 0.02)"/><path id="PA" class="cls-1" d="M757.37,148.79l-6.31-2.72-1-2.41-5.44-4.17-29.7,8.93-29.5,8-5.14-1.26-.68-2.91-1.65,1.26-2.62,1.84-4.76,4.85-.58.49,2.71,11.93.49,2.14,2.43,10.48.49,2h0l4.27,18.44,13.78-3.4,1.94-.49,1.75-.49,6.89-1.84,38-10.58,6.89-2.14,1.65-.49h0l.78-1.94,1.75-1.36h2.33l.29-.87,3.79-4.27.39-.68.29-.19-3.79-9.9-1.84-.29.1-6.5-1.75-2.14,4.08-9h0l-.19-.39Z" transform="translate(-7.2 0.02)"/><path id="ME" class="cls-1" d="M804.17,97.06h-.1l.19.1-.1-.1Zm7.2-20.68-.78-1.16v.58ZM810,75.31v-1l-.1-.58Zm3.49-4.08-.19-.1.1.29.1-.19Zm9.71-4.85L823,64.92l-.39.68Zm-2.43.58.1-1.07-1.16.19,1.07.87Zm3.59-3.2H824V64Zm-4.85,1.46-.87-.19-.1.87,1-.68Zm5-3,.87.68-.29-.78Zm-2.62.1L821,64l1.16-.58Zm-4.17.1-.39.58.29.87.1-1.46Zm5.73-3.2-.1-.78-.29.49.39.29Zm-.49.39-.87-.78v.68Zm-5.44,2.23-.19-1.07-.39.87Zm9.22-3.4-1.46,2.14-.1-1.55Zm7.09-6.5-.68-1-.39.19Zm2.53-4.38-.58-.29-.1.29ZM837.63,40h-.87l1,.29-.1-.29Zm1.46,1-.29-1.75-.78-.1Zm-1.55-1.55-.17-1.88-.68,1.26.87.58ZM781.26,54.66l14.11,33,.19.68,6.11,7.47v-.15l1-.29.19-5.53,1.55-1.94,1-5.14-.87-.87,1.65-5,5.63-2.62,3.69-4.46L816.87,62l5.92-.39-.78-4,7.38-2.81.49-4.37,1.75.39,4.85-4,2.14-5.14-5-5-5.25-1-1.94-4V29.41l-3.2,1-3.59-1.26v-4l-9.71-21L802.84.46,795,7.06l-2.17-.4L791,3.26l-2.52,1-3.59,17.86,1.26,5.82,1.07,11.84-2.82,9.14,1.94,1.46L784,54.84l-2.52-.39-.19.19Z" transform="translate(-7.2 0.02)"/><path id="MI" class="cls-1" d="M577.37,116.86l-.49-.78-.1,1Zm1.55-1.75-1.16-1.55-.19.68Zm1-7-1-.87v.19Zm-2.43,76,12-1.94,3.4-.68,14.85-2.62.29,1.26,1-.29,6.41-1.36,6.11-1.46,6.21-1.55-.1-.29,3.2-6.31-.29-5.24,3.59-9,2.81,1.65,1.07-2-.29-7.77-2.66-4.85-3.88-10.29-3.4-3.79-1.75-.49-6.31,4.37.68.87-3.3,6.21-3.2-.58-1-6.5,1.36-.49,2.81-6.5.29-11.45L613,103.31l-9.65-1.65-1-1.46-9-2.62-4.08,5,.39,4.37-3.11,3.88.68,6-3,2.14V111.4l-2.72,5.73-3.2,5-2.14,1.65,1.07,5.34-1.36,5.53.78,6.89-1,3.4,7,13.39.87,5.14-.87,9.51L578,183.66l-.58.39ZM598.2,96.66l-2.52.19L597.23,98l1-1.36Zm-14.75,2.52h-.78l.87.39Zm17-12.33-1-1.55-.39.1,1.36,1.46Zm-87.94,7.09,3.11,1.75,15.92,4.85,7.38,1.94,7.18.49,5.24,4.27v6.6L556,118.5v-.1l3.79-11,4.56-3.2,3.49-3.88.58,3.49L572,98.28l8.64-3.3.68-1.36,8.74,1.07,3.4,1.75,1.65-4.27,1.55,1,6.79-1.07-1.65-2.72-3-1.75.58-6.31-5.92,3.3L588,83.94l-1.75-4.17.58-1.36-7.38,3.49-4.76.29-8.54,5.24-1,1.94-5.24-1.26-3.3,1.46L550,83.84l-14.67-4.45-.26-1.73-9.42,9L520.37,88l-7.57,5.73-.29.19Zm34.36-22-11.36,5.63,3.79,3.69,1.46-3.69,3.88-4.76ZM534.14,58.66,526.37,64,526,66.58l6.11-4.46Z" transform="translate(-7.2 0.02)"/><path id="CA" class="cls-1" d="M63.37,342.43l.39,2.14V345l-.39-2.52ZM49.1,334.08l.68,1.46.39-.1-1.07-1.36Zm17-.29.29,2.52,1.75,1.26ZM54.37,320l-1.07-.29.87.39.19-.1ZM43.6,317.1,41,318.66l.68.68Zm-5-1.84-.19.78.87.19-.68-1Zm8.54,1.94,4.23,2.46.78-.68ZM14,231.66l-.1.1Zm10.39.49-.1-.29v.39Zm56-73.67-3.79-1L35,146l-15.43-4.66v.39l-.87,9.61-4.08,11.36-6.79,8.44-.19,4.27,3.3,5.92,1.65,7.77-2.33,6.31.39,6.31-1.16,2.62,4,8.64,2.52,3.3-.19,9.42,6,5.73,3.51-5.8,3.79,3,1.46-1.36-5.24,1-.1,5,1.07,6.21-3-2.85-1.65-3.79-.49,5.24,1.36,10.39L28,255.2l-3.59,4.66.58,5.92,3.88,6,6.79,18.64,2.14,1.16-.68,12.91L38.22,306l14.56,5.24L57.24,316l1.55,3.11,4.27,2.43,4.66.87,1.94,5.34,3.88,1.84,5.82,6.89,5.44,9-.39,8.35,3,4,39.7,3.88h0l3.49-.19,1.55-4.27-3-2.23.1-7.09,1.75-.39,3.49-8.54,2.14-4,5.44-3.2-3-4.08-3.4-9.12.19-2.43v-.1l-2.52-3.4-7.77-10.39-15-21.16-21-30.09L77.75,234.66,66.3,218.16l13.2-56,.87-3.69Z" transform="translate(-7.2 0.02)"/><text class="cls-2" transform="translate(53.75 281.02) scale(0.81 1)"><tspan class="cls-3">C</tspan><tspan x="8.32" y="0">A</tspan></text><text class="cls-2" transform="translate(377.07 415.56) scale(0.81 1)">TX</text><text class="cls-2" transform="translate(233.18 88.87) scale(0.81 1)">MT</text><text class="cls-2" transform="translate(712.07 288.56) scale(0.81 1)"><tspan class="cls-3">S</tspan><tspan x="7.92" y="0">C</tspan></text><text class="cls-2" transform="translate(171.44 346.72) scale(0.81 1)"><tspan class="cls-3">A</tspan><tspan x="7.92" y="0">Z</tspan></text><text class="cls-2" transform="translate(107.26 233.6) scale(0.81 1)"><tspan class="cls-3">N</tspan><tspan x="8.7" y="0">V</tspan></text></svg>