<?xml version="1.0" encoding="utf-8"?>
<!-- Generator: Adobe Illustrator 21.1.0, SVG Export Plug-In . SVG Version: 6.00 Build 0)  -->
<svg version="1.1" id="usa_map" xmlns="http://www.w3.org/2000/svg" xmlns:xlink="http://www.w3.org/1999/xlink" x="0px" y="0px"
	 viewBox="0 0 839.6 531.1" style="enable-background:new 0 0 839.6 531.1;" xml:space="preserve">
<style type="text/css">
	.st0{fill:#41423E;stroke:#62635F;stroke-width:0.97;stroke-linejoin:round;}
	.st1{fill:#FFFDFD;}
	.st2{font-family:'AkzidenzGroteskBE-Cn';}
	.st3{font-size:19px;}
</style>
<title>us</title>
<path id="MA" class="st0" d="M813.7,131.7l-0.3-0.2v0.3L813.7,131.7L813.7,131.7z M810.8,129.1l0.7-0.3v-0.4L810.8,129.1z
	 M822.8,121.5l-0.1-1.4l-0.2-0.8L822.8,121.5z M780.4,111.5l-0.7,0.3l-5.5,1.6l-1.9,0.7l-2.2,0.7l-0.8,0.3v0.3l0.3,5l0.3,4.7
	l0.3,4.3l0.5,0.3l1.8-0.5l7.9-2.3l0.2,0.5l14-5.3l0.1,0.2l1.3-0.5l4.5-1.8l4.3,5.1l0,0l0.6-0.5l0.3-1.5l-0.1,2.3h1l0.3,1.2l0.9,1.6
	l0,0l4.6-5.5l3.8,1.3l0.9-1.9l6.2-3.3l-2.6-5.1l0.7,3.3l-3.2,2.4l-3.6,0.3l-7.2-7.7l-3.2-4.9l3.2-3.4l-3.3-0.2l-1.4-3.2l-0.1-0.2
	l-5.5,6l-12.2,4.1L780.4,111.5L780.4,111.5z"/>
<path id="MN" class="st0" d="M415.9,52.5l1.9,6.9l4.1,24.9l1.9,9.9l0.6,8.7l2.2,5.2l0.5,4.5l0.4,1.5l-0.1,0.3l-3.9,6.4l2.5,4.3
	l4.8,34.2l0.2,4.5l4.8-0.3l19.1-1.1l47.8-4l4.8-0.5v-0.5l-1.4-7.5l-5.9-3l-4.7-4.9l-7.3-4.5l-2.3-0.2l-3.7-2.7l1-13.4l-3.4-3.1
	l1.2-5.4l6.2-5.7l-1.1-11.7l2.2-2.5l0,0l7.6-8l8.6-11.1l3.3-2.3l5.8-2.8l6.1-4.6l-4.1,0.8l-2.4-1.8l-9.3,1.3l-1.5-1.8l-8.3,3.4
	l-6.7-2.8l-1.8-2.2l-5.3,0.4l-3.6-1.8l1.2-1.4l-4.6-1.5h-4.1l-6.5,2.8l-1.3-1.9l-10.2-1.4l-3.5-8.7l-0.4-2.6l-4.5-1.3l0.4,7.5
	l-11.8,0.9l-14.7,0.6L415.9,52.5L415.9,52.5z"/>
<path id="MT" class="st0" d="M323,51.7l-32.1-2.1l-23.4-2.2l-23.3-2.7l-14.5-1.9L206.7,39l-11.5-1.9l-25.8-5l-2.7-0.6l-4.2,19.8
	l1.8,3.6l1.5,5.5l-0.9,0.8l1.8,5l2.5,2.1l7.2,12l0.7,2l2.9-0.2l-3.4,15.9l-1.4,0.4l-1.8,5.5l9.6,0.7l0.8,4.5l5.4,13.3l1,0.8l3.8,7.8
	l1-0.8l8.1-0.1l10.2,1.1l2.5-3.3l3,5.4l0.6,0.3l0.1-0.6l1.4-9.5l33.2,4.1l26.4,2.5l14,1.2l25,1.4l1.3,0.1h0.3l0.1-1.4l0.3-6.7
	l0.4-8.8l0.1-2.2l0.2-3.9l1.5-30.5l1.2-23.6l0.1-3.9L323,51.7L323,51.7z"/>
<path id="ND" class="st0" d="M413.9,52.5l-29.3,0.6L364.1,53l-17.6-0.4l-20.6-0.8l-1.1-0.1l-0.1,3.9l-1.3,23.7l-1.5,30.5l-0.2,3.8
	l3.8,0.2l42.8,1.2l39.5-0.3l16.4-0.5l3.3-0.2l-0.4-1.5l-0.5-4.5l-2.2-5.2l-0.6-8.7l-1.9-9.9l-4.1-24.8l-1.9-6.9L413.9,52.5
	L413.9,52.5z"/>
<path id="ID" class="st0" d="M166.5,31.5l-8.6-1.8l-2.8-0.7l-1.3-0.3l-11.3,50.7l0.5,4.2l-0.4,4.4l0.2,1v0.1l0.1,1.8l3.3,3.6
	l-4.8,11.9l-10,13.2l-0.3,2.4l2.6,6.2l-9.2,38.2l-0.4,2l2.7,0.6l27.4,5.5l11,2l2.8,0.5l2.7,0.5l14,2.2l25,3.8l2.8,0.4l0.4-3.2
	l0.9-6.3l3.3-25.2l1.8-12.5l0.4-3.2l-0.6-0.3l-3-5.4l-2.5,3.3l-10.2-1.1l-8.1,0.1l-1,0.8l-3.8-7.8l-1-0.8l-5.4-13.3l-0.7-4.4
	l-9.6-0.7l1.8-5.3l1.4-0.4l3.4-15.9l-2.9,0.2l-0.7-2l-7.2-12l-2.5-2.1l-1.8-5l0.9-0.8l-1.5-5.5l-1.9-3.7L166.5,31.5L166.5,31.5
	L166.5,31.5z"/>
<path id="WA" class="st0" d="M49.5,55.7l0.1-1.7l-0.2,0.1L49.5,55.7L49.5,55.7z M70.2,46.9l0.6-1l-0.7-0.1L70.2,46.9L70.2,46.9z
	 M68.4,45.1l0.6-1.9L68.4,43V45.1z M75.4,42.3l-0.1-1.9l-1.6,2.5C73.6,42.9,75.4,42.3,75.4,42.3z M75.6,38.2l0.3-1.9l-0.2-0.5
	L75.6,38.2L75.6,38.2z M75.8,28.7l-0.1-1.1l-0.4-0.1L75.8,28.7L75.8,28.7z M79,22.3l-0.9-0.1l-1.7,2.7L79,22.3z M76.6,19.7l0.5-0.4
	l0.1-0.3L76.6,19.7L76.6,19.7z M76.1,20L75.8,18l-0.9,1.6L76.1,20z M75.6,17.2l-0.9-0.4l0.7,1L75.6,17.2L75.6,17.2z M78.5,18.9v-1.2
	l-0.3,0.5L78.5,18.9z M79.4,17.7L79,17.4h-0.1L79.4,17.7z M73.8,15.5l-0.5-0.4L73.2,15L73.8,15.5z M77.4,15.1l-2.6,0.7l0.7,0.2
	L77.4,15.1z M75.4,14.9l-0.5-0.6l-0.1,0.1L75.4,14.9L75.4,14.9z M77.4,13.8H77l0.5,0.2L77.4,13.8z M58.4,63.6l3.5,3.8l-0.6,7.3
	l0.7,1.8l5.2,2.8l14.8,1.4l0.6,1.8l7,0.1l6.6,0.9l10.8-1.2l5.3,0.9l1.5-0.7l27.3,6.2l1.8,0.4l-0.2-1l0.4-4.4l-0.5-4.2l11.3-50.7
	l-1.5-0.3l-22.7-5.3l-19.8-5L87.3,12l-6.7-1.6l1.6,8.4l-1.5,2.7L78,20.2l2.5,11.7l-2.7,3.9l-1.3,3.6v3.7l-5.7,4l-2.4-1.6l-2.3,1.2
	l4.3-5.6l-1.1,3.8l2.4-2.6l1.9,0.4l-0.6-4.8l1.3,0.2l2.6-5.8l-0.9-0.9l-3.4,4.4l-2.2,0.1l2.4-2.7l2.7-0.7l-1-5l-2.7-0.7l-1.4-2.3
	l-1.6,0.9L60,21.3l-7.9-6.1L50,21.2l-0.2,2.5l1.6,4.5l-1.1,14.5l-0.8,2.2l4.4,0.4l-4.4,3.1l2.3,1.2l-1.8,6.2l-0.9-4.8l-1.6,5.6
	l2.2,2.7l2.4-0.2l2.9,1.8l1.5,2.8L58.4,63.6L58.4,63.6z"/>
<path id="CO" class="st0" d="M347,234.2l0.4-19l-4.7-0.2l-23.7-0.9l-2.3-0.1l-1.9-0.1l-28.8-1.8l-19.2-1.6l-24-2.3l-2.3-0.3
	l-0.3,2.5l-5.2,50.6l-1.8,17.6l-0.8,7.7l-0.2,2.5l3,0.3l48.9,4.3l21.5,1.4l21.5,1l3.1,0.1l1.9,0.1l4.1,0.1l1.9,0.1l6.1,0.2h1.5v-1.9
	l1.1-51.4l0.1-5.7v-1.8L347,234.2L347,234.2z"/>
<path id="NV" class="st0" d="M152.2,274.5l10.1-62.8l5.1-31.4l0.6-3.1l-2.8-0.5l-11-2l-27.5-5.4l-2.7-0.6l-2.7-0.6l-13.7-3L83,159.2
	l-2.7-0.7l-0.9,3.7l-13.2,56l11.5,16.5l11.8,16.4l21,30.1l15,21.2l7.8,10.4l2.5,3.4v-0.3l1.5-3.3l0.1-15.4l4.3-3.6l3.4,3l2.2,0.1
	l4.3-18.8v-0.2L152.2,274.5L152.2,274.5z"/>
<path id="NM" class="st0" d="M329.8,303.4l0.1-2.5l0.1-2.5l0.1-2.5l-3.1-0.1l-21.5-1l-21.5-1.4l-48.9-4.3l-3-0.3l-0.4,3.5l-7.3,75.1
	l-0.7,7.1l-2.7,28.6l0.4,0.1l13.4,1.3l1.3-6.8l2.4-1.9l27.2,2.4h0.2l-2.4-4.8l12.3,0.9l30.8,1.8l19.2,0.9l3.3-91l0.7,0.1
	L329.8,303.4L329.8,303.4z"/>
<path id="OR" class="st0" d="M19.6,141.4l15.4,4.7l41.5,11.4l3.8,1l2.7,0.7l24.6,5.8l13.7,3l2.7,0.6l0.4-2l9.2-38.2l-2.6-6.2
	l0.3-2.5l10.1-13.2l4.8-11.9l-3.3-3.6l-0.1-1.8V89l-1.8-0.4l-27.3-6.2l-1.5,0.7l-5.3-0.9l-10.8,1.2l-6.6-0.9l-7-0.1L82,80.6
	l-14.8-1.4L62,76.5l-0.7-1.8l0.6-7.3l-3.5-3.8l-0.3,0.1l-0.7,0.5l-4.9-2.5l-2.9,0.9l-1.9-1l-2,8.4l-1.4,2.3l-6,14.7l-1.8,8.1
	L35.5,95l-5.6,13.4l-3.8,5.7l-1.4,1l-3.5,6.8l-0.7,7.2l-2.2,6.4L19.6,141.4L19.6,141.4L19.6,141.4z M55.1,61.7l-0.3-0.9l-0.1,0.7
	L55.1,61.7z"/>
<path id="UT" class="st0" d="M209.8,183.7l-25-3.8l-14-2.2l-2.7-0.5l-0.6,3.1l-5.2,31.4l-10.1,62.8l-0.5,3.1l2.5,0.4l25,4l17.6,2.5
	l32.7,4.1l2.5,0.3l0.2-2.5l0.8-7.7l1.8-17.7l5.2-50.6l0.3-2.5l-1.9-0.2l-24.8-3l-3.8-0.5l2.5-18.9l0.2-1.3L209.8,183.7L209.8,183.7z
	"/>
<path id="WY" class="st0" d="M318.8,170.8l0.8-15.1l1-20.4l0.1-2.5l-1.3-0.1l-25-1.4l-14-1.2l-26.5-2.5l-33.2-4.1l-1.3,9.5l-0.1,0.6
	l-0.4,3.2l-1.8,12.5l-3.3,25.2l-0.9,6.3l-0.4,3.2l-0.2,1.3l-2.4,18.9l3.8,0.5l24.8,3l1.9,0.2l2.3,0.3l24,2.3l19.2,1.6l28.8,1.8
	l1.9,0.1l0.1-2.5l0.5-10.2l0.9-17.8l0.4-7.6l0.1-2.5L318.8,170.8L318.8,170.8z"/>
<path id="AR" class="st0" d="M547.8,306.7l-10.5,1.5l4.3-6.8l-1.9-3.8l-37,3.6l-31.2,2.5l-4.6,0.3l0.6,2.7l3.8,19.6l0.1,4.4
	l1.1,26.4l0.1,4.4l0.3,0.1l1.5,1.5l5.8-0.2l0.6,8.5l0.2,2.4l3-0.3l9.2-0.7l36.6-3.4h0.2l-0.1-2.1l1-0.7l-1.8-3.3l3.7-15.5l-1.4-1.8
	l5.5-6.1l-0.4-5.2l4.1-6.8V328l-0.2-0.2l3.5-3.2l-1-3.9l2.7-4.3l-0.6-4l2.9-5.6v-0.1L547.8,306.7L547.8,306.7z"/>
<path id="IA" class="st0" d="M518.9,176.4l-5.3-2.8l-2.9-4l-1-5.7l0.8-2.6l-2.8-3.4l0,0l-4.8,0.5l-47.8,4l-19.1,1.1l-4.8,0.3l-2,0.1
	l1.7,10.8l-1.4,5.1l2.1,3.2v0.7l0.7,0.1l3.2,9.1l3,4.8l0.2,5.4l3.3,4.6l-0.6,1.9l3,12.2v0.3l0,0l19.9-0.6l21.2-1.8l20.9-2.6l4.8,4.2
	l0.2,0.2l0.9-0.4l-0.7-3.8l3.6-2.2l1.5-9.9l-1.5-0.7l0.9-5l4.4-0.9l4.8-3.5l2.1-6.1l0.2-3.2l-3.9-3.7l-1.2-2.3l-3.7-2.3l0.2-0.5
	L518.9,176.4L518.9,176.4z"/>
<path id="KS" class="st0" d="M466.3,291.4l-2.4-41.1l-4.4-2.5l-0.4-1.9l-3.5-3.1l3.4-4.2l-1.4-2.4l-2.5,0.1l-2.3-1.6l-1-0.8
	l-3.3,0.2l-35.8,1.4l-16.4,0.4h-32.6l-13.1-0.2l-3.7-0.1v1.8l-0.1,5.7l-1.1,51.4v1.9l4.2,0.1l22.5,0.3l52.7-0.8l37.6-1.8l3.7-0.3
	L466.3,291.4L466.3,291.4z"/>
<path id="MO" class="st0" d="M511,221.1l-4.8-4.2l-20.9,2.6l-21.3,1.8l-19.9,0.6l0,0l-0.1,0.6l2.4,4.7l2.2,1.6l2.6,4.7l0.4,0.4
	l1,0.8l2.3,1.7l2.5-0.1l1.4,2.4l-3.4,4.2l3.5,3.1l0.4,1.9l4.4,2.5l2.4,41.1l0.1,2.5l0.2,2.5l0.1,2.5l0.2,2.6l0.1,2.5l4.6-0.3
	l31.2-2.5l37-3.6l1.8,3.8l-4.2,6.8l10.5-1.5h0.1v-0.8l0.2-4.5l1.9-2.4l-0.6-2.7l-0.1-0.1l-0.1-0.1l0.4-1.3l0.6,0.2l0.3,0.8l-0.1,0.3
	v0.9l0.4,0.1l0.8-1V296l0.1-0.3l2.5-1.5l0.4-0.2l0.9-8l-0.2-0.4l-0.3-0.1l-6.9-5.6l1.1-2l-1.9-5.5l-3.5-2.7l-6.6-2.9l-4.2-3.4l0.5-7
	l1.3-6.5l-7,0.4l-2.1-2.2l-1-4.5l-11.1-9.3l-3.1-8.6l0.8-4.3l0,0L511,221.1L511,221.1z"/>
<path id="NE" class="st0" d="M429.7,183.4l-3-3l-10.6-3.1l-3.4-0.1l-5.1,1.5l-6.1-3.9l-19.1,0.2l-27.9-0.2l-32.9-1.1l-2.9-0.1
	l-0.1,2.5l-0.4,7.6l-0.9,17.8l-0.5,10.2l-0.1,2.5l2.3,0.1l23.7,0.9l4.7,0.2l-0.4,19l-0.1,1.3l3.7,0.1l13.1,0.2h32.6l16.4-0.4
	l35.8-1.4l3.3-0.2l-0.4-0.4l-2.6-4.7l-2.2-1.6l-2.4-4.7l0.1-0.6v-0.3l-3-12.2l0.6-1.9l-3.3-4.6l-0.2-5.4l-3-4.8l-3.1-9.1l-0.7-0.1
	L429.7,183.4L429.7,183.4z"/>
<path id="OK" class="st0" d="M466.9,301.6l-0.2-2.6l-0.1-2.5l-0.2-2.5l-3.7,0.3l-37.6,1.8l-52.7,0.8l-22.5-0.3l-4.2-0.1h-1.5
	l-6.1-0.2l-1.9-0.1l-4.1-0.1l-1.9-0.1l-0.1,2.5l-0.1,2.5l-0.1,2.5l-0.1,2.6h0.6l23.5,0.6l24.8,0.3l0.3,33.2l1.8,5.8l3.9,3.7l4.2,0.2
	l0.9-1.8l5.7,5.2l7.5,0.8l1.4,1.5l2.7-1.3l6.8,3.2v1.8l2.5-0.1l2.6-2.2l4.8,3.1l4.6,1.6l3.1-4.3l9.9,4.7l3.7-3l3-1.2l2.4,0.6
	l9.1-2.6l4.8,2l4.4,2.8l3.8,0.7h0.1l-0.1-4.4l-1.1-26.4l-0.1-4.4l-3.8-19.6l-0.6-2.7L466.9,301.6L466.9,301.6z"/>
<path id="SD" class="st0" d="M424.3,114.2l-16.4,0.5l-39.5,0.3l-42.8-1.2l-3.8-0.2l-0.1,2.2l-0.4,8.8l-0.3,6.7l-0.1,1.4h-0.3
	l-0.1,2.5l-1,20.4l-0.8,15.1l-0.1,2.6l2.9,0.1l32.9,1.1l27.9,0.3l19.1-0.2l6.1,3.9l5.1-1.5l3.4,0.1l10.6,3.1l3,3l1.8,0.2v-0.7
	l-2.1-3.2l1.4-5.1l-1.7-10.8l2-0.1l-0.2-4.5L426,125l-2.5-4.3l3.9-6.4l0.1-0.3L424.3,114.2L424.3,114.2z"/>
<path id="LA" class="st0" d="M546.4,447.9l-1.3,0.3l-0.6,0.6L546.4,447.9z M550.5,447.9l-0.7-0.3l-0.2,0.3H550.5z M552.8,447.2h-0.7
	l-0.4,0.5L552.8,447.2z M551.6,446.5l-0.2-0.3l-0.1,0.3H551.6z M559.4,441.3l-0.3,0.2h0.5L559.4,441.3L559.4,441.3z M573,435.7
	l0.6-0.8L573,435.7L573,435.7L573,435.7z M574.9,433.1l-0.2,0.1v0.1L574.9,433.1L574.9,433.1z M525,441.7l1.5-1.8l-4-1.1l-1.8,1.5
	L525,441.7L525,441.7z M565.3,433.2l-0.4-0.4l-0.1,0.2L565.3,433.2L565.3,433.2z M566.4,431.5l-1-0.3l0.3,1L566.4,431.5z
	 M574.4,429.8L574.4,429.8z M576.3,428.6l-0.1-0.1L576.3,428.6L576.3,428.6L576.3,428.6z M575.5,428.4l-0.2-0.1l-0.1,0.3
	L575.5,428.4z M568.7,428.1l0.9-0.3v-0.3L568.7,428.1L568.7,428.1z M569.2,427.6l0.5-0.5l-0.1-0.1L569.2,427.6L569.2,427.6z
	 M565.8,424l-0.2,0.2h0.1L565.8,424L565.8,424z M530,369.7h-0.2l-36.6,3.4l-9.2,0.7l-3,0.3l0.1,2.3l1.9,18.7l3.2,4.5l0.1,2.6
	l3.1,5.4l2.5,8L491,420l-0.7,11l-1.5,3.6h0.2l0.3,2.5l-1.7,2.3l12-1.4l9.4,2.6l6.7,0.9l3.4-2.4l-1.8-2.4l6.2-1.9l-0.2,2.1l3.2-0.8
	l2.6,4.1l2.2-0.8l5.8,4l-3.6,1.3l8.2,2.4h3.1l1.8-2.2l4-2.1l2.8,4.1l1.9-3.7l-0.6-5.8l5.2,2l0.6,1.8l6.2,0.8l3.1,2.5l-0.4,2l4.4-4.1
	l-1.7-2.1l-7.3-1.8l-2.7-1.5l-0.1-2.9l3,0.4l2.3-4.8l-3-4.2l-1.7,4l-3.8-0.7l2.6-4.3l-1.8-0.5l-4.3,3l-6.1,0.4l-1.8-1.4l2.8-5
	l3.3-0.1l5.6,1.8l4.1,0.4l0,0l-2.2-2.8l-4.3-8.4l1.2-4.7l-33.5,3.7l1.3-1.3l-1.4-3.5l2-3l1.2-7.6l7.4-12.6l-3.6-4.4l0.2-3.2
	l-2.2-5.2L530,369.7L530,369.7z"/>
<path id="TX" class="st0" d="M431.4,515.6l-4.7-17.6v3.3L431.4,515.6z M430.3,484.7l-3.3,6.2l-0.4,2L430.3,484.7L430.3,484.7z
	 M432.9,480.2l3.1-4.1l-2.2,1.4L432.9,480.2z M443.9,470.3l-7.3,3.8l2-0.4L443.9,470.3z M444.9,468.9l2-1.6l-0.8,0.2L444.9,468.9z
	 M329.7,306l-0.7-0.1l-3.3,91l-19.2-0.9l-30.8-1.8l-12.3-0.9l2.4,4.8l0.1,0.1l10.5,10.5l6,7.1l8,5.9l5.6,10.3l2.1,10.8l4.6,3l3.6,4
	l5.1,1.8l7.5,4.8l3.4,1.3l4.7-4.7l1.5-5l2.4-4.8l7.6-3l2.9,1.5l8.4,0.7l7.7,4.8l5.2,1l-1.5,2.7l3,1.9l2.8,3.4l0.6,3.6l1.8,2.4
	l4.3,10.3l4.3,3.6l3.3,5.5l4.2,4.3l1.8,0.6l1.5,11.1l4.6,2.5l0.2,3.5l1.2-0.3l8,9.7l4,0.9l5,3h7.8l5.6,3.1l6.7-1.5l-3-2.8l-2.7-8.1
	l-1.1-7.1l-1.5-2.3l0.7-4.8l-2-0.2l-2.8-4.5l3.1,3.3l3.6-1.3l1.9-5.1l-3.9-5.2l5.8,0.7l2.7-4.2l-0.4-1.5l2.4-3.2l-0.6,2.8l2.7-2.1
	l-1.1-3.8l3.5,1.8l4.5-2.5l-4.4-4.6l2.7,1.1l5,0.3l6.6-1.5l7.4-5l4.5-3.7l0.7-2.7l2.7-2.8l-1.5-4.7l0.3-2.9l4.8-2.1l-0.4,5.1h2.9
	l-3.2,2.7l12.9-6.8l2.1-0.1l1.4-6.2h0.4l1.5-3.6l0.7-11.1l0.9-4.5l-2.5-8l-3.1-5.4l-0.1-2.6l-3.2-4.5l-1.9-18.7l-0.1-2.3l-0.2-2.4
	l-0.6-8.5l-5.8,0.2l-1.4-1.4l-0.3-0.1h-0.1l-3.8-0.7l-4.3-2.8l-4.8-2l-9.2,2.6l-2.4-0.6l-3,1.2l-3.7,3l-9.9-4.7l-3.1,4.3l-4.6-1.6
	l-4.8-3.1l-2.6,2.2l-2.5,0.1v-1.8l-6.8-3.2l-2.7,1.3l-1.4-1.5l-7.5-0.8l-5.7-5.2l-0.9,1.8l-4.2-0.2l-3.9-3.7l-1.8-5.8l-0.3-33.2
	l-24.9-0.3l-23.5-0.6L329.7,306L329.7,306z"/>
<path id="CT" class="st0" d="M794.4,122l-14,5.3l-0.2-0.5l-7.8,2.3l-1.8,0.5l0.2,1l3.7,14.3l1.2,1.5l-2.5,3.1l1.8,1.6l0,0l5.6-5.4
	l3-4.2l0.6,1.2l14.2-6.3l0.3-0.3l-0.1-2.3l-0.6-2l-3-8.4l-0.4-1.1L794.4,122L794.4,122z"/>
<path id="NH" class="st0" d="M781.3,54.7l-1.3,1.6l-1.5-0.3l-0.8,6.4v0.1l2.3,8.7l-0.2,1.8l-4.2,5.5l1.1,5v6.3l-0.8,5.8l4.4,15.9
	l0,0l4-1.3l12.2-4.1l5.5-6l0,0v-1.5l0.3-2.5l-0.7,0.3l-0.1-0.6l-6.1-7.5l-0.2-0.7L781.3,54.7z"/>
<path id="RI" class="st0" d="M803.9,130.7l-0.1-2l-0.3,0.8L803.9,130.7L803.9,130.7z M805.8,129.2l-1.3-2.4l-0.1,2.5L805.8,129.2
	L805.8,129.2z M805.2,126.2l0.7,1.8l0.9,1.6l0.6-1.2l-0.9-1.6l-0.3-1.2h-1L805.2,126.2z M794.5,122.2l0.4,1.1l3,8.4l0.6,2l0.1,2.3
	l0.2-0.3l4.7-3.7l-0.9-6.6l1.9-0.4l0,0l-4.3-5.1l-4.5,1.8L794.5,122.2L794.5,122.2z"/>
<path id="VT" class="st0" d="M780.4,111.5L776,95.6l0.8-5.8v-6.3l-1.1-5l4.2-5.5l0.2-1.8l-2.3-8.7l-1.3,0.5l-5.3,1.9l-5.2,2l-12,4.4
	l-0.7,0.2l4.4,10.2l1.5,9.6l5.1,8.1l4.8,15.9l0.2-0.1l0.8-0.3l2.2-0.7l1.9-0.7l5.5-1.6L780.4,111.5L780.4,111.5L780.4,111.5z"/>
<path id="AL" class="st0" d="M575.7,323.5l0.4,0.8l1.4,0.9L578,365l0.2,21.8l5,29.9l0.4-0.1l4.4,0.9l1.2-8.6l1.9,4.9l3.3,3l6.3-3.7
	l-0.7-0.6l0.2,0.1l-4.4-10l41.9-6.8l2.8-0.5v-0.1l-2.6-5l-0.2-7.1l-2.1-3.9l1.1-7.6l1.7-1.9l-7.2-12.8l-13-39.6l-0.1-0.2l-2.9,0.5
	l-15.5,2.5l-7.8,1l-16.3,2.2L575.7,323.5L575.7,323.5z"/>
<path id="FL" class="st0" d="M712.1,513.9h-0.2H712.1L712.1,513.9L712.1,513.9z M711.2,513.8L711.2,513.8L711.2,513.8L711.2,513.8z
	 M711.4,513.8L711.4,513.8z M698.2,515.2L698.2,515.2L698.2,515.2z M698,515.3L698,515.3z M697.1,515.3L697.1,515.3L697.1,515.3
	L697.1,515.3z M724.7,509.2L724.7,509.2v0.2V509.2z M727.3,508.5v-0.2l-0.2,0.3L727.3,508.5z M726.3,508.3l-0.4-0.4l-0.1,0.1
	L726.3,508.3L726.3,508.3z M726,509.1l-1.1-1.5l0.7,1.3L726,509.1L726,509.1z M735.2,503.4v0.4l0.2-0.2L735.2,503.4z M736.6,502.4
	l0.3-0.5l-0.4,0.4L736.6,502.4L736.6,502.4z M736.9,501.4L736.9,501.4L736.9,501.4L736.9,501.4z M735.1,501.1L735.1,501.1
	L735.1,501.1z M736,499.6L736,499.6L736,499.6L736,499.6L736,499.6z M733.4,499.5L733.4,499.5L733.4,499.5z M736.7,497.3l-0.2,0.1
	l0.3,0.1L736.7,497.3L736.7,497.3z M737,497.3l-0.2-0.2L737,497.3L737,497.3L737,497.3z M736.4,497.1L736.4,497.1L736.4,497.1
	L736.4,497.1L736.4,497.1z M740,496.4L740,496.4l-0.2,0.3L740,496.4L740,496.4z M735.9,496.8h-0.2H735.9L735.9,496.8z M737.9,495.7
	h-0.3l-0.1,0.1L737.9,495.7L737.9,495.7z M730.5,495.6v-0.2V495.6L730.5,495.6z M731.4,495.3h-0.3l0.3,0.6V495.3z M729,495.4v-0.6
	l-0.5,0.1L729,495.4z M727.7,494.4l0.5,0.5v-0.2L727.7,494.4L727.7,494.4z M742,495l-1.8,0.8l0.6,0.1L742,495z M728.4,494.1h-0.6
	v0.2L728.4,494.1z M743.7,489.2l0.1-0.5l0.1-1.3L743.7,489.2L743.7,489.2z M743.8,483.8l-0.4-1l-0.2,0.4L743.8,483.8z M721.4,486.2
	l-0.2,0.3l0.5,0.1L721.4,486.2L721.4,486.2z M719.5,485.4l-0.9,0.3l0.7,0.1L719.5,485.4z M717.6,485.5v-0.3l-0.1,0.1L717.6,485.5z
	 M715.6,485.4l-0.6,0.4l0.8,0.4L715.6,485.4L715.6,485.4z M718.3,485.5l-0.1-0.3l-0.5-0.1L718.3,485.5L718.3,485.5z M705.6,476
	l-0.6,0.3l1.2,0.4L705.6,476L705.6,476z M703.4,473l-0.8-1.2l0.3,0.9L703.4,473L703.4,473z M706.4,474.9l-1.4-3.1l-1-0.3
	L706.4,474.9z M702.5,471l-0.3-0.8l-0.2-0.5L702.5,471L702.5,471z M694.4,460.3l-1.8-1.3l0.7,0.7L694.4,460.3z M738,453.8l-7.1-11.8
	h-0.4L738,453.8L738,453.8z M689,434.8l-0.3-0.1L689,434.8L689,434.8L689,434.8z M688.5,434.2l-0.1,0.1l0.1,0.1V434.2L688.5,434.2z
	 M687.8,433.2v-0.1V433.2L687.8,433.2z M688.2,432.8l0.3,0.2v-0.2H688.2z M688.8,432.4l-0.4,0.1h0.1L688.8,432.4L688.8,432.4z
	 M688.1,432.3l-0.3-0.3l0.1,0.1L688.1,432.3z M687.4,431.2h-0.2l0.3,0.1L687.4,431.2z M688.1,430h-0.4l-0.1,0.1L688.1,430z
	 M688.5,430.2l-0.5-0.5l0.2,0.1L688.5,430.2L688.5,430.2z M684.8,426.1l-0.2-0.1v0.1H684.8z M680.6,426.1l-0.3-0.4l0.1,0.5
	L680.6,426.1L680.6,426.1z M645.3,422.9l2.9-2.2l-3.2,2.1L645.3,422.9L645.3,422.9z M651.1,418.2l0.3-0.3l-1.2,0.5L651.1,418.2
	L651.1,418.2z M614.2,411.7l-10.6,3.4l5.8-1.6L614.2,411.7z M640.5,395.2l-2.8,0.5l-41.9,6.8l4.4,10l0.3,0.1l-1.1,4l3.1-1.4l3.4-3
	l5.8-0.2l6.7-2.4l4.6,0.7l-1.1,1.6l8.3,2.8l7.2,3.5l1.7,3.9l5.3-1.2l12.7-10.3l4.7,0.2l19,14.4l3.9-0.8l4.1,5.4l0.8,8.6l-1.3,5.4
	l0.6,2.7l3.4,6.8l-1.5-5.3l4.4-0.1l0.4,3.9l-2.3,6l8.1,11.1l3,0.1l-2.5-3.4l3.1,0.4l1.8-1.2l-0.8,6.2l4.2,3.3l2.8,7.6l3.8,2.3
	l4.8,1.3l6.7,8.5l3.5,1.8l-4.7,0.3l2.1,2.4l7.7-2.5l3.8-2.1l3.5-12.2l-1.8-19l-0.4-1.9l-9.3-15.5l-8-11.3l-4.5-9.2l3.8,3.2l0.8-0.6
	l1.7,8.1l4.3,6.1l-4.2-8.1l0.2-3.9l-12.5-15.2l-3-4.8l-4-8.1l-2.7-6.8l-2.1-2.4l-0.5-3.1l-0.1-0.1l-6.7-0.4l-2.6,2l-1.5,7.5
	l-1.4-3.5l-45.8,5.7l-3.3-5.1L640.5,395.2L640.5,395.2z"/>
<path id="GA" class="st0" d="M703.2,374.8l-0.1-2.9l-0.7,2.5L703.2,374.8L703.2,374.8z M704.3,370.3l-0.4-2.2l-0.3,1.4L704.3,370.3z
	 M658.9,309.1l-1.3,0.3l-3.7,0.8l-13.5,2.8l-1.3,0.3l-1.4,0.2l-7.6,1.5l-2,0.4l-8.2,1.5l-1.8,0.2l0.1,0.2l13,39.6l7.1,12.8l-1.7,2
	l-1.1,7.6l2.1,3.9l0.2,7.1l2.6,5v0.1l-0.1,0.1l3.3,5.1l45.8-5.7l1.4,3.5l1.5-7.5l2.6-2l6.7,0.4l0,0l-0.6-10.6l1.3-2.2l-0.7-4.2
	l1.4-4l2-2.2l-1.4-1.4l3.4-4.2h-0.1l-5.8-5.4l-8-11.4l-4.4-2L670,326l-4.6-5.8l-8.8-3.7l-0.5-1.9L658.9,309.1L658.9,309.1
	L658.9,309.1z"/>
<path id="MS" class="st0" d="M574.1,421.4l-0.5,0.1v0.1L574.1,421.4L574.1,421.4z M583.1,420.3h-1.4l1.3,0.1L583.1,420.3z
	 M571.9,421.3l-0.4,0.4l0.1,0.1L571.9,421.3L571.9,421.3z M581,420.5h-3.6l3.5,0.1L581,420.5z M540.5,328v0.1l-4.1,6.8l0.4,5.2
	l-5.5,6.1l1.5,1.8l-3.7,15.5l1.8,3.3l-1,0.7l0.1,2.1v0.7l2.2,5.2l-0.2,3.2l3.6,4.4l-7.4,12.6l-1.2,7.6l-2,3l1.4,3.5l-1.3,1.3
	l33.5-3.7l-1.2,4.7l4.3,8.4l2.2,2.8v-0.1l3.6-4.1l7.6-1.6l7,0.8l1.1-1.4v-0.1l-5-29.9l-0.2-21.8l-0.6-39.8l-1.4-0.9l-0.4-0.8h-0.2
	l-4.8,0.7l-8.5,1.2l-19.4,2.4L540.5,328L540.5,328z"/>
<path id="SC" class="st0" d="M658.9,309.1L658.9,309.1l-2.7,5.3l0.5,1.9l8.8,3.7l4.6,5.8l18.7,15.7l4.4,2l8,11.4l5.8,5.4l0,0l1-4.5
	l-1.6-4.2l4.2,3.1l2.3-1.8l-4-3.3l4.8-0.3l7.6-6.4l-0.9-1.6l4.7-3.6l-0.5-1.8l3.4-2.1l0.2-5l5.3-9.9l3.6-4.6l0.4-0.2l-21.7-13.7
	l-8.1,1.5l-11-0.4l-5.4-2.8l-32.2,10.2H658.9L658.9,309.1z"/>
<path id="IL" class="st0" d="M518.8,176.9l-0.2,0.5l3.7,2.3l1.2,2.3l3.9,3.7l-0.1,3.1l-2.1,6.1l-4.8,3.5l-4.4,0.9l-0.9,5l1.5,0.7
	l-1.5,9.9l-3.6,2.2l0.7,3.8l-0.9,0.4l0,0l-0.8,4.3l3.1,8.6l11.1,9.3l1,4.5l2.1,2.2l7-0.4l-1.3,6.5l-0.5,7l4.2,3.4l6.6,2.9l3.5,2.7
	l1.9,5.5l-1.1,2l6.9,5.6l0.3,0.1l-0.6-0.6l1.9-4.6l7.5,2l1.8-2.1l-1.5-4.3l6.1-3.6l-1.7-2.3l1.5-3.3v-0.1l-0.4-0.1l0.1-8.6l2.1-1.5
	l3.6-8.7l-0.8-3.8l-2.4-4.6l1.4-5.1l-6.7-47.8l-1-1.1l-2.5-5.7l-2-2.1l-0.9-5.6v-0.2l-13.1,1.8l-7.9,1L518.8,176.9L518.8,176.9
	L518.8,176.9z"/>
<path id="IN" class="st0" d="M607.7,178.9l-14.8,2.6l-3.4,0.7l-12,1.9l-2.5,2l-3.8,1.8l-1.5-0.1l-1.8-0.9l-0.6-0.6l6.8,47.8
	l-1.4,5.1l2.4,4.6l0.8,3.8l-3.7,8.6l-2.1,1.5l-0.1,8.6l0.4,0.1l0.4-0.1l1.5-2.7h3.6l4.4-1.5l5.4,2l0.6-2.2l3.1-2.3l4.7,0.7l2.5-5
	l6.9,0.6l-0.1-2.8l6.1-8.1l-1-3.7l4.3-0.1l5.2-4.2l-1.3-4.8l0.2-0.2l-0.2-1.6l-5.8-34.4l-2.6-14.6l-0.3-1.6L607.7,178.9L607.7,178.9
	z"/>
<path id="KY" class="st0" d="M550.5,295.8l-0.3-0.8l-0.6-0.2l-0.4,1.3l0.1,0.1l1.1-0.1L550.5,295.8L550.5,295.8z M616.9,232.4
	l-0.2,0.2l1.3,4.8l-5.2,4.2l-4.3,0.1l1,3.7l-6.1,8.1l0.1,2.8l-6.9-0.6l-2.5,5l-4.7-0.7l-3.1,2.3l-0.6,2.2l-5.4-2l-4.4,1.5h-3.6
	l-1.5,2.7l-0.4,0.1v0.3l-1.5,3.3l1.7,2.3l-6.1,3.6l1.5,4.3l-1.8,2.1l-7.5-2l-1.9,4.6l0.6,0.6l0.2,0.4l-0.9,8l-0.4,0.2l-2.5,1.5
	l-0.1,0.3l2.8-0.4l19.6-2.6l-1-3.9l3.3-0.1l39.5-5.2l27.8-4.7l0.4-0.3l0.7-0.8l7.3-3.9l5.6-7.4l0.8-2.5l3.7-2.9l4.7-5.9l0.7-1
	l-0.3-0.1h-2.4l-3.1-1.9L656,246l-1.9-6.8V239l-0.2-0.2l-4.1-2.3l-1.8-3.1l-3.7,3.6l-2.3,0.6l-2.9-1.2l-2.5,1.9l-5.2-2.3l-1.4,0.6
	l-5-4.3l-2.5-1.3l-4.8,0.6L616.9,232.4L616.9,232.4z"/>
<path id="NC" class="st0" d="M747.6,310.9l-1.1,1.1l0.2,0.2L747.6,310.9L747.6,310.9z M748.4,305.3l-0.5,0.8l0.2,0.8L748.4,305.3
	L748.4,305.3z M754.2,296.3l-1.5,1l-0.8,1.2L754.2,296.3L754.2,296.3z M766.7,290.2l-0.6-0.4l-1.3-0.1L766.7,290.2L766.7,290.2z
	 M764.1,289.6h-0.9l-1.5,0.8L764.1,289.6z M767.1,290.6l2.8-7l-1.9,2.9L767.1,290.6L767.1,290.6z M771.3,281.4l1.3-1.8h-0.7
	L771.3,281.4z M779.4,273.9l-2.1-10.8l1.8,5.6L779.4,273.9L779.4,273.9z M767.6,249.3l-0.2,0.1l-0.3,0.1h0.1l5.3,9l4.2,4.2
	L767.6,249.3L767.6,249.3L767.6,249.3z M765.8,249.9l-0.8,0.2l0,0l0.2,0.1h1.7l-0.2-0.6l0,0l-0.3,0.1h-0.3v0.2l-0.2,0.1L765.8,249.9
	L765.8,249.9L765.8,249.9z M676,272l-0.5,1.5l0.1,4.2l-1.1-0.1l-2.5,5.1l-2.8,0.3l-5.2,5.1l-2.3-0.9l-3,4.5l-8,7.2l-3.9,1l-4.1,3.8
	l-0.2,2.5l-3.6,1.9l0.1,4.3v1l1.3-0.3l13.6-2.8l3.7-0.8l1.3-0.3h0.3l32.2-10.3l5.4,2.8l11,0.4l8.1-1.5l21.7,13.7l0.4-0.3l10-4.1
	l0.1-5.3l3.6-6.5l3.9-3.7l8.1-5.3l1.1-1.9l2.1,1l1-6.4l-1.2,2.2l-4.1,1.4l-3.9,0.1l4.8-3.5l-1.5-1.5l1.7-3.5l-9.2-1.5l-0.4-0.5
	l7.8-1.5l2.5,1.3l3.2-0.3l2.6-1.9l1.9-3.8l1.8-0.5l-0.3-5.3l-2.2-2.2l-2.2,2l0.5,5.1l-1.7-6.3l-1.3-0.3l-9.6,4l4.3-4.2l0.2-1.6
	l4.5-1.1l1.3-3.3l3,1.8L767,252l-2.2-1.9l0,0l-38.8,11.1l-24.8,6.3l-25,4.7L676,272L676,272z"/>
<path id="OH" class="st0" d="M675.6,185.3l-2.4-10.5l-0.5-2.1l-2.7-11.9l-3.5,2.2l-7.5,5.7l-4.9,6l-3.8,0.6l-7,4l-3.9-2.3l-11.7-1.4
	l0,0l-6.2,1.6l-6.1,1.4l-6.4,1.4l-1,0.3l0.3,1.6l2.6,14.7l5.8,34.4l0.2,1.6l0.8-0.8l4.8-0.6l2.5,1.3l5,4.3l1.4-0.6l5.2,2.3l2.5-1.9
	l2.9,1.2l2.3-0.6l3.7-3.6l1.8,3.1l4.1,2.3l0.2,0.2l0,0l4.2-2l1.5-3.2l-1.2-3.3l3.3-5l2.4-0.4l-0.3-4.3l4-5.4l0.7,0.8l3.6-2.7
	l3.1-4.8l0.5-21.3l0.2-0.1L675.6,185.3L675.6,185.3z"/>
<path id="TN" class="st0" d="M643.6,279.1l-27.8,4.7l-39.5,5.2l-3.3,0.1l1,3.9l-19.6,2.6l-2.8,0.4v0.1l-0.8,1l-0.4-0.1v-0.9
	l-1.1,0.1l0.1,0.1l0.6,2.7l-1.9,2.4l-0.2,4.5v0.9l-2.9,5.6l0.6,4l-2.7,4.2l1,3.9l-3.5,3.2l0.2,0.2l2.1-0.2l19.4-2.4l8.5-1.2l4.8-0.7
	h0.2l-0.1-0.2l16.3-2.2l7.8-1l15.5-2.5l2.9-0.5l1.8-0.2l8.2-1.5l2-0.4l7.6-1.5l1.4-0.2v-1L639,308l3.6-1.9l0.2-2.5l4.1-3.8l3.9-1
	l8-7.2l3-4.5l2.3,0.9l5.2-5.1l2.8-0.3l2.5-5.1l1.1,0.1l-0.1-4.2l0.5-1.5l-1.5,0.3l-5.5,1.5l-6.6,1.4l-16.6,3.4l-1.8,0.3L643.6,279.1
	L643.6,279.1z"/>
<path id="VA" class="st0" d="M766.1,249.7h0.2l0.3-0.1l0,0l-0.2-0.5L766.1,249.7L766.1,249.7L766.1,249.7z M762.8,238.8v0.5l0.5-0.3
	L762.8,238.8z M764.6,235.4l-0.1-0.8l0,0L764.6,235.4z M764,236.6l-0.2,1.3l-0.3,0.5L764,236.6L764,236.6z M764.9,234l0.1-0.6
	L764.9,234L764.9,234L764.9,234z M765.4,231.4l0.3-0.7l-0.5,1.8L765.4,231.4z M765.5,230l0.4-2.1l-0.5,0.5L765.5,230z M767.3,220.3
	l0.2-0.9l-0.1,0.2L767.3,220.3L767.3,220.3z M766.9,218.1l-1.3,0.5l-1.9,0.9l-0.7,0.9l0.3,0.1l-2.3,14.5l0.9,2.3l1.4-6l2.5-7.9
	l1.2-5.1L766.9,218.1L766.9,218.1z M768.8,217.3l-0.3,0.1l-0.1,0.4l-0.5,3l0.4-1.1L768.8,217.3L768.8,217.3z M667.4,254.5l-0.7,1
	l-4.7,5.9l-3.7,2.9l-0.8,2.5l-5.6,7.4l-7.3,3.9l-0.7,0.8l1.8-0.3l16.6-3.4l6.6-1.4l5.5-1.5l1.5-0.3l0.1,0.2l25-4.7l24.8-6.3
	l38.8-11.1l0,0l-0.3-0.5l-0.1-0.3l0.7,0.7l0,0l0.8-0.2l-0.1-0.1l-0.7-3.3l0.5,0.1l1.5,2.9l0,0l0.3-0.1l0.2-0.1l-0.4-0.8l-4-6.1
	l-5,0.9l-2.2,1.8l-2.1-1.9l-7.3-2.4l-5-0.2l9.9-0.8l5.4,3.7l1.5-2.4l-4.4-5.5l3.1,0.2l-1.7-4.5l-3.9,0.2l-9.2-7.5h-1.2l13,6.4
	l-0.9-4.5l0.9-1.5l-6.6-2.5l-5.7-0.4l-2.8-2.5l-2.3,1.5l-0.9-6.7l1,0.2l-0.2-5.4l-0.2-0.2l-0.2,0.1l-0.2-0.1l-0.5-0.4l-0.3-0.3
	l-3.1-1.4l-3.2-2.3l-4.5-1.2l-0.3-0.1v0.1l-0.6,4.1l-9-3.9l0.2,5.6l-5,9.4l-3,3.3l-1.9,5.7l-5.9-2l-2.9,13.2l-2.3,4.5l-0.4,5.8
	l-1.8,2.8l-6.5,1.9l-5.3,4.2l-2.5,0.4l-2.4,2.1l-6.1-2.2l-1.1-3L667.4,254.5L667.4,254.5z"/>
<path id="WI" class="st0" d="M563.2,113.5l-2.4,3l-1.5,4.4l0.7,2.4L563.2,113.5z M507.5,90.7l1.5-2l-1.1,1L507.5,90.7z M509.7,87.5
	l-0.5-0.6l-1.1,0.7L509.7,87.5L509.7,87.5z M488.5,92.9l-2.2,2.5l1.1,11.6l-6.2,5.6l-1.2,5.4l3.4,3.1l-1,13.4l3.6,2.7l2.3,0.2
	l7.4,4.5l4.7,4.9l5.9,3l1.4,7.5v0.5l0,0l2.8,3.4l-0.8,2.6l1,5.7l2.9,4l5.3,2.8l-0.1,0.5l0,0l21.2-2.4l7.9-1l13.1-1.8l-0.4-1.5v-4.6
	l-2.6-4.9l-0.7-6.1l1.3-6.8l-0.7-5.2l2.3-6.5l-0.9-1.1l0.2-6l1.3-4.6l-1.5-1.6l-2.8,1l-1.5,4.1l-3.7,2.1l1.2-5.1l3.3-4.4l0.2-1.9
	l0.1-0.1l-4.6-4.8v-6.6l-5.2-4.3l-7.2-0.5l-7.4-1.9l-16-4.9l-3.1-1.8l-0.3,0.3l-5-0.7l-1.7,1l0.7-7.1l-8,4.1l-9.7,1.6l-0.1-0.2
	L488.5,92.9z M507.5,87.8l-0.2-0.7l-0.7,0.3L507.5,87.8z M504,87.1l0.3-0.6l-0.2-0.2L504,87.1L504,87.1z M511.1,85.4l-0.3-1.4
	l-0.3,1.6L511.1,85.4z"/>
<path id="WV" class="st0" d="M694.1,202.4l-13.8,3.4l-4.3-18.4l0,0l-0.2,0.1l-0.5,21.2l-3.1,4.7l-3.6,2.7l-0.7-0.8l-4,5.4l0.3,4.3
	l-2.4,0.4l-3.3,5l1.2,3.3l-1.5,3.2l-4.2,2l0,0v0.2l1.9,6.8l5.5,6.7l3.1,1.8h2.4l0.3,0.1l0.2,0.1l1.1,3l6.1,2.2l2.4-2.1l2.5-0.4
	l5.3-4.2l6.5-1.9l1.8-2.8l0.4-5.8l2.3-4.5l2.9-13.2l5.9,2l1.9-5.7l3-3.3l5-9.4l-0.2-5.6l9,3.9l0.6-4.1v-0.1l0,0l-2.8-4.7l-5.8-0.7
	l-3.4,2.6v1.9l-2.9,0.7l-4.3,3l-2.2,0.5l-4.5,6.3l-2.2-10.2L694.1,202.4L694.1,202.4z"/>
<path id="DE" class="st0" d="M751.2,186.4l0.4,1.5l8.1,23l9.2-2.7l-0.1-0.2h0.2l0.3,0.1l0,0l0.2-0.1l-0.2-0.4l-2.3-6.2l-11.4-10.8
	l0.5-7.5h-2.3l-1.8,1.4L751.2,186.4L751.2,186.4L751.2,186.4z"/>
<path id="DC" class="st0" d="M735.5,207.8l0.5,0.4l0.2,0.1l0.2-0.1l0.2,0.1l0.7,0.4l0.2,0.3v0.7l0.2,0.4l1.3-2.3l-1.4-0.8l-1.7,0.1
	L735.5,207.8L735.5,207.8z"/>
<path id="MD" class="st0" d="M768.9,216.9l0.7-5.2l-0.6,3.9l-0.4,1.6l-0.1,0.2l0.3-0.1L768.9,216.9L768.9,216.9z M769.4,207.9
	l-0.2,0.1l0.2,0.6V207.9L769.4,207.9L769.4,207.9z M696,201.9l2.2,10.2l4.5-6.3l2.2-0.5l4.3-3l2.9-0.7v-2l3.4-2.6l5.8,0.7l2.8,4.9
	l0,0l0.3,0.1l4.5,1.2l3.2,2.3l3.1,1.4l0.3,0.3l0.4-0.8l1.7-0.1l1.4,0.8l-1.3,2.3v0.1l-1.8,5.6l6,3.9l6,0.3l4,1.8l-1.7-4.7l-5.1-1.8
	l-1.3-4l3.2,4.3l2.6,0.4l-2.3-2.3l-1.8-6.9l0.5-4l-2-4.4l2.1-1.8l1.5-5.6l-0.6,8.4l1.7,2.8l1.5-3.3l0.9,5.4l-1.7,4l4.8,1.8l-4.1,1.4
	l2.1,4l3.5,1.2l1.9-3.4l-0.2,4.8l3.3-0.1l2.1,2.4h0.1l0.7-0.9l1.9-0.9l1.3-0.5l-0.1-0.2l2.5-7.5v-0.3l-0.5-1.9v-0.1l-9.2,2.7
	l-8.1-23l-0.4-1.5l-1.7,0.5l-6.9,2.1l-38,10.6l-6.9,1.8L696,201.9L696,201.9z"/>
<path id="NJ" class="st0" d="M774.2,186l-0.5-1.2v1.2H774.2z M775.2,182.4l0.3-2.9l-0.6,2.5L775.2,182.4L775.2,182.4z M771.2,152.6
	l-10.2-2.5l-1.8-0.5l-1.7-0.4l0,0l-4.1,9l1.8,2.1l-0.1,6.5l1.8,0.3l3.8,9.9l-0.2,0.3l-4.8,7l0.5,5.3l11.5,3.9l0.1,4.5l2.6-3.7
	l0.4-5.3l2.7-1.8l-1.1-4l2-4.8V168l-0.7-3.4l-4.6,0.1l1.2-4.7L771.2,152.6L771.2,152.6L771.2,152.6z"/>
<path id="NY" class="st0" d="M770.9,160.4l-1.5,2L769,163L770.9,160.4z M784.3,155.7l4.8-4.3v-0.2L784.3,155.7z M771.6,158.7v-3.3
	l-0.3,1.8L771.6,158.7z M794.1,143.1l-1.2-0.3l-0.2,0.9L794.1,143.1z M796.7,141.4l-0.1,1l0.2-0.6L796.7,141.4L796.7,141.4z
	 M794,141.5l-6.5,6l-10,4.3l-2.6,2.2l-0.2,2.1l-2.7,2.2l0.4,2.9l4.2-1.6l6.1-5l6.8-3.6l10.3-9.7l-7.3,5.5l-2.3,1L794,141.5
	L794,141.5z M797,137.4l0.4-0.6l-1.2,1.4L797,137.4z M687.9,133.8l-1.5-0.2l1.2,1.6L687.9,133.8L687.9,133.8z M720.1,104.1l0.2-1.1
	l-0.8,1L720.1,104.1L720.1,104.1z M720.6,97.1l-0.4,0.2l-0.5,1.1L720.6,97.1L720.6,97.1z M679.5,152.2l0.7,2.9l5.2,1.3l29.5-8.1
	l29.7-8.9l5.4,4.2l1.1,2.4l6.3,2.7l0.2,0.4l1.7,0.4l1.8,0.5l10.2,2.5l-0.2-0.5l0.9,4l1.9-0.5l1.1-4.4v-0.1l-1.8-1.6l2.5-3.1
	l-1.2-1.5l-3.7-14.2l-0.2-1l-0.5-0.3l-0.3-4.3l-0.3-4.7l-0.3-5v-0.3l-0.2,0.1l-4.8-15.9l-5.1-8.1l-1.5-9.6l-4.4-10.2l-0.6,0.3
	l-20.3,6.8l-4.1,4.4l-4.6,8.8l0.2,1.9l-6,9.1l3.7,1.3l1.1,6.9l-4.3,5.6l-12.8,7.8l-2.4-1l-9.5,1.4l-8.8,5.3l0.5,2.8l3.1,2.7
	l-1.8,8.5l-7,8.1L679.5,152.2L679.5,152.2z"/>
<path id="PA" class="st0" d="M757.4,148.8l-6.3-2.7l-1-2.4l-5.4-4.2l-29.7,8.9l-29.5,8l-5.1-1.3l-0.7-2.9l-1.7,1.3l-2.6,1.8
	l-4.8,4.9l-0.6,0.5l2.7,11.9l0.5,2.1l2.4,10.5l0.5,2l0,0l4.3,18.4l13.8-3.4l1.9-0.5l1.8-0.5l6.9-1.8l38-10.6l6.9-2.1l1.7-0.5l0,0
	l0.8-1.9l1.8-1.4h2.3l0.3-0.9l3.8-4.3l0.4-0.7l0.3-0.2l-3.8-9.9l-1.8-0.3l0.1-6.5l-1.8-2.1l4.1-9l0,0L757.4,148.8L757.4,148.8z"/>
<path id="ME" class="st0" d="M804.2,97.1L804.2,97.1l0.1,0.1L804.2,97.1L804.2,97.1z M811.4,76.4l-0.8-1.2v0.6L811.4,76.4z
	 M810,75.3v-1l-0.1-0.6L810,75.3z M813.5,71.2l-0.2-0.1l0.1,0.3L813.5,71.2L813.5,71.2z M823.2,66.4l-0.2-1.5l-0.4,0.7L823.2,66.4z
	 M820.8,67l0.1-1.1l-1.2,0.2L820.8,67L820.8,67z M824.4,63.8H824V64L824.4,63.8z M819.5,65.2l-0.9-0.2l-0.1,0.9L819.5,65.2
	L819.5,65.2z M824.5,62.2l0.9,0.7l-0.3-0.8L824.5,62.2z M821.9,62.3L821,64l1.2-0.6L821.9,62.3z M817.7,62.4l-0.4,0.6l0.3,0.9
	L817.7,62.4L817.7,62.4z M823.5,59.2l-0.1-0.8l-0.3,0.5L823.5,59.2L823.5,59.2z M823,59.6l-0.9-0.8v0.7L823,59.6z M817.5,61.8
	l-0.2-1.1l-0.4,0.9L817.5,61.8z M826.8,58.4l-1.5,2.1l-0.1-1.6L826.8,58.4z M833.8,51.9l-0.7-1l-0.4,0.2L833.8,51.9z M836.4,47.6
	l-0.6-0.3l-0.1,0.3H836.4z M837.6,40h-0.9l1,0.3L837.6,40L837.6,40z M839.1,41l-0.3-1.8l-0.8-0.1L839.1,41z M837.5,39.4l-0.2-1.9
	l-0.7,1.3L837.5,39.4L837.5,39.4z M781.3,54.7l14.1,33l0.2,0.7l6.1,7.5v-0.1l1-0.3l0.2-5.5l1.5-1.9l1-5.1l-0.9-0.9l1.7-5l5.6-2.6
	l3.7-4.5l1.4-7.8l5.9-0.4l-0.8-4l7.4-2.8l0.5-4.4l1.8,0.4l4.8-4l2.1-5.1l-5-5l-5.2-1l-1.9-4v-2.3l-3.2,1l-3.6-1.3v-4l-9.7-21
	l-7.1-3.7L795,7.1l-2.2-0.4L791,3.3l-2.5,1l-3.6,17.9l1.3,5.8l1.1,11.8l-2.8,9.1l1.9,1.5l-2.3,4.5l-2.5-0.4L781.3,54.7L781.3,54.7z"
	/>
<path id="MI" class="st0" d="M577.4,116.9l-0.5-0.8l-0.1,1L577.4,116.9z M578.9,115.1l-1.2-1.6l-0.2,0.7L578.9,115.1z M579.9,108.1
	l-1-0.9v0.2L579.9,108.1z M577.5,184.1l12-1.9l3.4-0.7l14.8-2.6l0.3,1.3l1-0.3l6.4-1.4l6.1-1.5l6.2-1.6l-0.1-0.3l3.2-6.3l-0.3-5.2
	l3.6-9l2.8,1.6l1.1-2l-0.3-7.8l-2.7-4.8l-3.9-10.3l-3.4-3.8l-1.8-0.5l-6.3,4.4l0.7,0.9l-3.3,6.2l-3.2-0.6l-1-6.5l1.4-0.5l2.8-6.5
	l0.3-11.4l-4.4-9.7l-9.6-1.6l-1-1.5l-9-2.6l-4.1,5l0.4,4.4l-3.1,3.9l0.7,6l-3,2.1v-7.6l-2.7,5.7l-3.2,5l-2.1,1.6l1.1,5.3l-1.4,5.5
	l0.8,6.9l-1,3.4l7,13.4l0.9,5.1l-0.9,9.5l-4.7,10.7L577.5,184.1L577.5,184.1z M598.2,96.7l-2.5,0.2l1.5,1.2L598.2,96.7L598.2,96.7z
	 M583.5,99.2h-0.8l0.9,0.4L583.5,99.2z M600.5,86.8l-1-1.6l-0.4,0.1L600.5,86.8L600.5,86.8z M512.5,93.9l3.1,1.8l15.9,4.8l7.4,1.9
	l7.2,0.5l5.2,4.3v6.6l4.7,4.7v-0.1l3.8-11l4.6-3.2l3.5-3.9l0.6,3.5l3.6-5.5l8.6-3.3l0.7-1.4l8.7,1.1l3.4,1.8l1.7-4.3l1.5,1l6.8-1.1
	l-1.7-2.7l-3-1.8l0.6-6.3l-5.9,3.3l-5.4-0.7l-1.8-4.2l0.6-1.4l-7.4,3.5l-4.8,0.3l-8.5,5.2l-1,1.9l-5.2-1.3l-3.3,1.5l-6.6-5.7
	l-14.7-4.5l-0.3-1.7l-9.4,9l-5.3,1.4l-7.6,5.7L512.5,93.9L512.5,93.9z M546.9,71.9l-11.4,5.6l3.8,3.7l1.5-3.7l3.9-4.8
	C544.6,72.8,546.9,71.9,546.9,71.9z M534.1,58.7l-7.8,5.3l-0.4,2.6l6.1-4.5L534.1,58.7z"/>
<g>
	<path id="CA" class="st0" d="M63.4,342.4l0.4,2.1v0.4L63.4,342.4L63.4,342.4z M49.1,334.1l0.7,1.5l0.4-0.1L49.1,334.1L49.1,334.1z
		 M66.1,333.8l0.3,2.5l1.8,1.3L66.1,333.8z M54.4,320l-1.1-0.3l0.9,0.4L54.4,320L54.4,320z M43.6,317.1l-2.6,1.6l0.7,0.7L43.6,317.1
		z M38.6,315.3l-0.2,0.8l0.9,0.2L38.6,315.3L38.6,315.3z M47.1,317.2l4.2,2.5l0.8-0.7L47.1,317.2z M14,231.7l-0.1,0.1L14,231.7z
		 M24.4,232.2l-0.1-0.3v0.4L24.4,232.2z M80.4,158.5l-3.8-1L35,146l-15.4-4.7v0.4l-0.9,9.6l-4.1,11.4l-6.8,8.4l-0.2,4.3l3.3,5.9
		l1.6,7.8l-2.3,6.3l0.4,6.3l-1.2,2.6l4,8.6l2.5,3.3l-0.2,9.4l6,5.7l3.5-5.8l3.8,3l1.5-1.4l-5.2,1l-0.1,5l1.1,6.2l-3-2.9l-1.6-3.8
		l-0.5,5.2l1.4,10.4l5.4,6.7l-3.6,4.7l0.6,5.9l3.9,6l6.8,18.6l2.1,1.2l-0.7,12.9l1.1,1.5l14.6,5.2l4.5,4.8l1.6,3.1l4.3,2.4l4.7,0.9
		l1.9,5.3l3.9,1.8l5.8,6.9l5.4,9l-0.4,8.4l3,4l39.7,3.9l0,0l3.5-0.2l1.5-4.3l-3-2.2l0.1-7.1l1.8-0.4l3.5-8.5l2.1-4l5.4-3.2l-3-4.1
		l-3.4-9.1l0.2-2.4v-0.1l-2.5-3.4l-7.8-10.4l-15-21.2l-21-30.1l-11.8-16.4l-11.4-16.5l13.2-56L80.4,158.5L80.4,158.5z"/>
	<text transform="matrix(0.8116 0 0 1 60.9473 281)" class="st1 st2 st3">CA</text>
</g>
<text transform="matrix(0.8116 0 0 1 384.27 415.5301)" class="st1 st2 st3">TX</text>
<text transform="matrix(0.8116 0 0 1 240.3704 88.8498)" class="st1 st2 st3">MT</text>
<text transform="matrix(0.8116 0 0 1 719.27 288.5301)" class="st1 st2 st3">SC</text>
<g>
	<path id="AZ" class="st0" d="M229.6,288.6l-32.7-4.1l-17.6-2.5l-25-4l-2.5-0.4v0.2l-4.3,18.9l-2.2-0.1l-3.4-3l-4.3,3.6l-0.1,15.4
		l-1.5,3.3v0.4l-0.2,2.4l3.4,9.1l3,4.1l-5.4,3.2l-2.1,4l-3.5,8.5l-1.8,0.4l-0.1,7.1l3,2.2l-1.5,4.3l-3.5,0.2l0,0l-2,3.8l7,4.4
		l13.2,7.4l40.8,21.6l34.5,4.3h0.4l2.7-28.6l0.7-7.1l7.3-75.1l0.4-3.5L229.6,288.6L229.6,288.6z"/>
	<text transform="matrix(0.8116 0 0 1 178.6304 346.6999)" class="st1 st2 st3">AZ</text>
</g>
<text transform="matrix(0.8116 0 0 1 114.4595 233.5751)" class="st1 st2 st3">NV</text>
</svg>
